<?xml version="1.0" encoding="utf-8"?>
<!-- Generator: Adobe Illustrator 27.5.0, SVG Export Plug-In . SVG Version: 6.00 Build 0)  -->
<svg version="1.1" xmlns="http://www.w3.org/2000/svg" xmlns:xlink="http://www.w3.org/1999/xlink" x="0px" y="0px"
	 viewBox="0 0 850 500" style="enable-background:new 0 0 850 500;" xml:space="preserve">
<g id="BACKGROUND">
	<linearGradient id="SVGID_1_" gradientUnits="userSpaceOnUse" x1="426.4023" y1="272.0351" x2="409.2806" y2="2.9819">
		<stop  offset="0" style="stop-color:#ACFFEB"/>
		<stop  offset="0.215" style="stop-color:#89F4ED"/>
		<stop  offset="0.5789" style="stop-color:#53E3F1"/>
		<stop  offset="0.8516" style="stop-color:#32D9F3"/>
		<stop  offset="1" style="stop-color:#25D5F4"/>
	</linearGradient>
	<rect style="fill:url(#SVGID_1_);" width="850" height="500"/>
</g>
<g id="OBJECTS">
	<g>
		<defs>
			<rect id="SVGID_00000040557130584856814240000015578553329178079934_" width="850" height="500"/>
		</defs>
		<clipPath id="SVGID_00000037661335082797752150000017806324638948154520_">
			<use xlink:href="#SVGID_00000040557130584856814240000015578553329178079934_"  style="overflow:visible;"/>
		</clipPath>
		<g style="clip-path:url(#SVGID_00000037661335082797752150000017806324638948154520_);">
			<path style="fill:#FFFFFF;" d="M622.224,209.375c-2.751,0-5.354,0.61-7.705,1.679c-0.832-5.317-5.419-9.389-10.97-9.389
				c-4.013,0-7.519,2.134-9.474,5.321c-2.287-5.477-7.692-9.328-13.998-9.328c-5.361,0-10.061,2.789-12.758,6.987
				c-0.621-0.088-1.25-0.148-1.895-0.148c-6.545,0-11.996,4.67-13.214,10.859c-3.392-1.581-7.172-2.469-11.162-2.469
				c-5.563,0-10.723,1.72-14.983,4.652c-1.67-7.462-8.321-13.042-16.286-13.042c-2.887,0-5.602,0.733-7.971,2.022
				c-0.934-12.909-11.695-23.093-24.843-23.093c-5.625,0-10.814,1.866-14.985,5.01c-3.428-5.304-9.381-8.823-16.166-8.823
				c-9.715,0-17.727,7.204-19.039,16.558c-2.197-1.059-4.65-1.67-7.252-1.67c-9.248,0-16.744,7.497-16.744,16.744
				c0,9.248,7.497,16.744,16.744,16.744c2.527,0,4.914-0.576,7.063-1.578c-0.003,0.138-0.021,0.272-0.021,0.41
				c0,6.386,3.023,12.054,7.702,15.693c0.15,12.828,10.31,23.245,23.036,23.803c2.283,21.955,20.842,39.074,43.401,39.074
				c22.794,0,41.495-17.478,43.459-39.762c5.126-0.602,9.804-2.663,13.604-5.764c3.981,3.692,9.308,5.953,15.165,5.953
				c9.135,0,16.982-5.492,20.433-13.353c1.644,0.482,3.379,0.752,5.18,0.752c6.488,0,12.181-3.365,15.46-8.436
				c2.482,1.221,5.265,1.926,8.218,1.926c10.309,0,18.665-8.357,18.665-18.665C640.889,217.732,632.533,209.375,622.224,209.375z"/>
			<path style="fill:#CAEFD9;" d="M647.721,240.154c-2.751,0-5.354,0.61-7.705,1.679c-0.832-5.317-5.419-9.389-10.97-9.389
				c-4.013,0-7.519,2.134-9.474,5.321c-2.287-5.477-7.691-9.328-13.998-9.328c-5.361,0-10.061,2.789-12.758,6.987
				c-0.621-0.088-1.25-0.149-1.895-0.149c-6.546,0-11.996,4.67-13.214,10.859c-3.392-1.581-7.172-2.469-11.162-2.469
				c-5.563,0-10.723,1.72-14.984,4.653c-1.67-7.462-8.321-13.042-16.286-13.042c-2.887,0-5.602,0.733-7.971,2.022
				c-0.934-12.909-11.695-23.093-24.843-23.093c-5.625,0-10.814,1.866-14.985,5.01c-3.428-5.304-9.38-8.823-16.166-8.823
				c-9.715,0-17.727,7.204-19.039,16.558c-2.197-1.059-4.65-1.67-7.252-1.67c-9.248,0-16.744,7.497-16.744,16.744
				c0,9.248,7.497,16.744,16.744,16.744c2.527,0,4.914-0.576,7.063-1.579c-0.003,0.138-0.021,0.272-0.021,0.41
				c0,6.386,3.023,12.054,7.702,15.693c0.15,12.828,10.31,23.245,23.036,23.803c2.283,21.955,20.842,39.074,43.401,39.074
				c22.794,0,41.495-17.478,43.459-39.762c5.126-0.602,9.804-2.663,13.604-5.764c3.981,3.693,9.308,5.953,15.166,5.953
				c9.135,0,16.982-5.493,20.433-13.353c1.644,0.482,3.379,0.752,5.179,0.752c6.489,0,12.181-3.365,15.46-8.436
				c2.482,1.221,5.265,1.926,8.218,1.926c10.309,0,18.665-8.357,18.665-18.665S658.029,240.154,647.721,240.154z"/>
			<path style="fill:#FFFFFF;" d="M847.98,179.498c-5.287-0.85-10.445,0.119-14.84,2.444c-2.42-5.503-7.482-9.709-13.859-10.735
				c-9.13-1.468-17.748,4.092-20.395,12.683c-1.904-1.327-4.118-2.272-6.563-2.665c-8.691-1.398-16.869,4.515-18.266,13.206
				c-1.398,8.691,4.515,16.869,13.206,18.266c2.375,0.382,4.706,0.201,6.876-0.416c-0.023,0.129-0.06,0.252-0.081,0.382
				c-0.965,6.002,1.019,11.785,4.867,15.912c-1.797,12.078,6.177,23.404,18.051,25.851c-1.172,20.978,13.682,39.871,34.883,43.28
				c1.724,0.277,3.439,0.431,5.141,0.493v-75.314v-7.705v-32.243C854.34,181.232,851.298,180.031,847.98,179.498z"/>
			<path style="fill:#CAEFD9;" d="M850.633,189.973c-5.252,1.046-9.748,3.753-13.057,7.464c-4.186-4.314-10.398-6.492-16.732-5.231
				c-9.069,1.806-15.209,10.021-14.695,18.997c-2.247-0.58-4.651-0.694-7.08-0.21c-8.633,1.719-14.237,10.112-12.518,18.744
				c1.719,8.633,10.112,14.237,18.744,12.518c2.359-0.47,4.481-1.451,6.3-2.787c0.023,0.129,0.031,0.257,0.057,0.387
				c1.187,5.962,5.063,10.691,10.108,13.217c2.527,11.955,13.962,19.793,25.954,17.934c1.9,6.128,5.112,11.562,9.286,16.022v-19.637
				v-30.51v-6.545v-1.078V189.58C854.917,189.428,852.781,189.545,850.633,189.973z"/>
			<path style="fill:#FFFFFF;" d="M177.645,168.889c-3.366-9.744-13.993-14.914-23.737-11.548c-2.6,0.898-4.861,2.325-6.735,4.103
				c-2.523-4.754-8.188-7.105-13.435-5.293c-3.793,1.31-6.41,4.472-7.217,8.123c-3.95-4.43-10.315-6.305-16.276-4.246
				c-0.657,0.227-1.277,0.508-1.881,0.812c-0.165-0.65-0.352-1.299-0.575-1.945c-4.288-12.413-17.827-19-30.241-14.712
				c-9.492,3.279-15.57,11.968-15.991,21.426c-4.262-0.985-8.842-0.828-13.282,0.705c-8.535,2.949-14.349,10.211-15.856,18.505
				c-6.493-5.515-15.646-7.56-24.282-4.576c-5.316,1.836-9.61,5.293-12.525,9.625c-1.966-1.537-4.215-2.678-6.612-3.362v67.636
				c5.525,9.389,16.877,14.06,27.618,10.869c9.327,20.006,32.458,30.127,53.781,22.761c21.544-7.442,33.514-30.069,28.095-51.772
				c4.648-2.242,8.397-5.718,10.976-9.89c4.968,2.19,10.742,2.588,16.278,0.675c8.634-2.983,14.258-10.736,14.953-19.293
				c1.712-0.082,3.44-0.393,5.141-0.981c6.133-2.119,10.415-7.157,11.858-13.021c2.745,0.344,5.605,0.101,8.396-0.863
				C175.84,189.26,181.011,178.633,177.645,168.889z"/>
			<path style="fill:#CAEFD9;" d="M149.999,205.581c-3.366-9.744-13.993-14.914-23.737-11.548c-2.6,0.898-4.862,2.325-6.735,4.103
				c-2.523-4.754-8.188-7.105-13.435-5.293c-3.793,1.31-6.41,4.472-7.217,8.123c-3.95-4.43-10.316-6.305-16.276-4.246
				c-0.657,0.227-1.277,0.508-1.881,0.812c-0.165-0.65-0.352-1.299-0.575-1.945c-4.288-12.414-17.827-19-30.241-14.712
				c-9.492,3.279-15.57,11.968-15.991,21.426c-4.262-0.985-8.842-0.828-13.282,0.705c-8.535,2.949-14.349,10.211-15.856,18.505
				c-4.374-3.715-9.956-5.847-15.773-5.936v86.183c9.344,19.969,32.45,30.064,53.753,22.705
				c21.545-7.442,33.514-30.069,28.095-51.773c4.648-2.242,8.397-5.718,10.976-9.89c4.968,2.19,10.742,2.588,16.278,0.675
				c8.634-2.983,14.258-10.736,14.953-19.293c1.712-0.082,3.44-0.393,5.141-0.981c6.133-2.118,10.415-7.157,11.858-13.021
				c2.745,0.344,5.605,0.101,8.397-0.863C148.195,225.952,153.365,215.324,149.999,205.581z"/>
			<path style="fill:#CAEFD9;" d="M264.814,62.81c-0.447,0-0.886,0.035-1.319,0.086c-1.653-4.335-5.837-7.42-10.753-7.42
				c-0.899,0-1.769,0.113-2.609,0.308c0.321-1.296,0.511-2.645,0.511-4.04c0-9.258-7.505-16.763-16.763-16.763
				c-9.167,0-16.603,7.36-16.749,16.492c-0.073,0.02-0.147,0.035-0.22,0.057c-1.696-4.423-5.971-7.569-10.991-7.569
				c-6.506,0-11.779,5.274-11.779,11.779c0,0.415,0.023,0.824,0.064,1.227c-0.612-0.065-1.231-0.104-1.86-0.104
				c-6.047,0-11.356,3.099-14.466,7.786c-0.928-0.244-1.9-0.379-2.905-0.379c-5.609,0-10.264,4.046-11.23,9.376h11.245h11.215
				h15.425h8.071H239h4.354h0.732h9.691h1.448h6.906h13.721C275.737,67.643,270.844,62.81,264.814,62.81z"/>
			<path style="fill:#CAEFD9;" d="M708.308,145.472c-0.846,0-1.661,0.118-2.444,0.32c-1.4-3.974-5.177-6.827-9.629-6.827
				c-0.655,0-1.294,0.068-1.914,0.186c-0.524-5.215-4.925-9.286-10.279-9.286c-3.987,0-7.44,2.262-9.163,5.569
				c-1.642-0.465-3.368-0.731-5.159-0.731c-0.433,0-0.857,0.036-1.283,0.065c-1.208-5.492-6.096-9.605-11.951-9.605
				c-6.762,0-12.244,5.482-12.244,12.244c0,1.011,0.136,1.988,0.367,2.928c-0.643-0.082-1.295-0.139-1.961-0.139
				c-5.365,0-10.076,2.75-12.835,6.908c-0.823-0.216-1.686-0.336-2.577-0.336c-4.976,0-9.107,3.589-9.964,8.319h9.977h9.951h13.686
				h7.161h25.995h3.863h0.65h9.883h0.078h6.05h13.536C718,149.76,713.659,145.472,708.308,145.472z"/>
			<path style="fill:#CAEFD9;" d="M793.652,64.144c-0.891,0-1.754,0.119-2.577,0.336c-2.759-4.158-7.47-6.908-12.835-6.908
				c-0.666,0-1.317,0.057-1.961,0.139c0.231-0.94,0.367-1.917,0.367-2.928c0-6.762-5.482-12.244-12.244-12.244
				c-5.855,0-10.744,4.113-11.951,9.605c-0.426-0.029-0.85-0.065-1.283-0.065c-1.791,0-3.517,0.266-5.159,0.731
				c-1.723-3.307-5.176-5.569-9.163-5.569c-5.353,0-9.755,4.071-10.279,9.286c-0.621-0.118-1.259-0.185-1.914-0.185
				c-4.453,0-8.229,2.853-9.629,6.827c-0.782-0.201-1.598-0.319-2.444-0.319c-5.35,0-9.692,4.288-9.793,9.614h13.536h6.05h0.078
				h9.883h0.65h3.863h25.995h7.161h13.686h9.951h9.977C802.759,67.733,798.628,64.144,793.652,64.144z"/>
			<path style="fill:#CAEFD9;" d="M437.075,85.941c-1.033,0-2.033,0.139-2.986,0.389c-3.197-4.818-8.656-8.005-14.872-8.005
				c-0.772,0-1.526,0.066-2.272,0.161c0.268-1.089,0.426-2.221,0.426-3.393c0-7.836-6.352-14.188-14.188-14.188
				c-6.778,0-12.437,4.756-13.844,11.111c-0.493-0.033-0.99-0.056-1.491-0.056c-2.076,0-4.081,0.295-5.984,0.835
				c-1.998-3.825-5.996-6.44-10.611-6.44c-6.203,0-11.303,4.717-11.91,10.76c-0.719-0.136-1.459-0.215-2.218-0.215
				c-5.159,0-9.536,3.306-11.158,7.91c-0.907-0.233-1.852-0.37-2.832-0.37c-6.199,0-11.23,4.969-11.347,11.14h15.684h7.01h0.09
				h11.451h0.753h4.476h30.121h8.298h15.858h11.53h11.561C447.627,90.101,442.842,85.941,437.075,85.941z"/>
			<g>
				<g>
					
						<linearGradient id="SVGID_00000125595911795569422460000004623631080334298774_" gradientUnits="userSpaceOnUse" x1="421.6786" y1="99.37" x2="423.0119" y2="396.0349">
						<stop  offset="2.200000e-07" style="stop-color:#5AA877"/>
						<stop  offset="0.3792" style="stop-color:#3D835B"/>
						<stop  offset="0.7805" style="stop-color:#236242"/>
						<stop  offset="1" style="stop-color:#195539"/>
					</linearGradient>
					<path style="fill:url(#SVGID_00000125595911795569422460000004623631080334298774_);" d="M740.09,184.18
						c-2.66-0.07-5.35-0.03-8.09,0.15c-11.87,0.77-28.11,7.09-46.75,15.8c-54.68,25.54-130.01,71.59-176.16,57.91
						c-58.85-17.43-95.54-59.82-144.91-96.28c-23.4-17.28-48.33-35.88-77.38-37.36c-9.11-0.46-17.95,0.78-26.55,3.19
						c-12.72,3.57-24.93,9.7-36.77,16.69c-9.05,5.32-17.88,11.14-26.57,16.68c-35.33,22.53-72.73,41.82-111.55,57.58
						c-8.336,3.378-68.795,27.477-96.36,29.121v298.156c121.276,1.931,718.461,8.316,868,2.071V240.953
						C818.312,222.752,785.761,185.495,740.09,184.18z"/>
					
						<linearGradient id="SVGID_00000039106854556116228600000002816386994675668112_" gradientUnits="userSpaceOnUse" x1="-24.6399" y1="324.761" x2="460.762" y2="324.761">
						<stop  offset="2.200000e-07" style="stop-color:#5AA877"/>
						<stop  offset="0.3792" style="stop-color:#3D835B"/>
						<stop  offset="0.7805" style="stop-color:#236242"/>
						<stop  offset="1" style="stop-color:#195539"/>
					</linearGradient>
					<path style="fill:url(#SVGID_00000039106854556116228600000002816386994675668112_);" d="M262.87,422.37
						c-11.06-9.76-15.69-26.2-11.35-40.29c2.11-6.85,6.17-13.71,4.51-20.68c-1.55-6.48-7.55-10.75-13.07-14.48
						c-11.97-8.06-25.02-18.77-24.78-33.2c0.06-3.61,0.99-7.19,0.72-10.79c-0.72-9.53-9.3-16.2-14.92-23.94
						c-9.13-12.57-10.57-30.3-3.58-44.18c1.49-2.96,3.37-5.91,3.45-9.22c0.21-8.99-11.79-12.87-15.88-20.88
						c-6.41-12.56,7.64-26.35,14.82-35.16c6.35-7.79,14.95-16,20.69-25.27c-9.05,5.32-17.88,11.14-26.57,16.68
						c-35.33,22.53-72.73,41.82-111.55,57.58c-8.336,3.378-68.795,27.477-96.36,29.121v219.885
						c8.649,7.755,17.969,14.713,28.16,20.264c37.55,20.42,82.94,19.81,125.24,13.68c46.27-6.7,93.99-20.71,126.54-54.27
						c2.49-2.56,4.99-5.48,5.33-9.04C274.92,431.43,267.95,426.87,262.87,422.37z"/>
					
						<linearGradient id="SVGID_00000109743327876176433000000015651630896474035881_" gradientUnits="userSpaceOnUse" x1="736.0563" y1="270.1953" x2="888.9388" y2="270.1953">
						<stop  offset="2.200000e-07" style="stop-color:#5AA877"/>
						<stop  offset="0.3792" style="stop-color:#3D835B"/>
						<stop  offset="0.7805" style="stop-color:#236242"/>
						<stop  offset="1" style="stop-color:#195539"/>
					</linearGradient>
					<path style="fill:url(#SVGID_00000109743327876176433000000015651630896474035881_);" d="M857,240.953
						c-38.688-18.201-71.239-55.458-116.91-56.773c-2.58,6.66-3.42,14.69-3.87,20.39c-0.73,9.17,0.91,18.84,6.36,26.25
						c3.23,4.37,7.68,7.84,10.3,12.6c2.35,4.26,3.05,9.21,4.1,13.97c2.18,9.76,6.06,19.14,11.42,27.58
						c7.1,11.17,16.92,20.76,28.81,26.56c4.87,2.37,10.05,4.1,14.78,6.74c5.9,3.3,10.95,7.91,15.9,12.52
						c9.429,8.777,18.813,17.734,29.11,25.421V240.953z"/>
					
						<linearGradient id="SVGID_00000032641909611611198870000015938392392770157964_" gradientUnits="userSpaceOnUse" x1="255.5834" y1="205.2885" x2="828.72" y2="205.2885">
						<stop  offset="2.200000e-07" style="stop-color:#5AA877"/>
						<stop  offset="0.3792" style="stop-color:#3D835B"/>
						<stop  offset="0.7805" style="stop-color:#236242"/>
						<stop  offset="1" style="stop-color:#195539"/>
					</linearGradient>
					<path style="fill:url(#SVGID_00000032641909611611198870000015938392392770157964_);" d="M685.25,200.13
						c-13.81,15.29-27.87,30.34-42.17,45.17c-3.79,3.93-7.78,7.96-12.9,9.84c-7.85,2.87-16.61,0.12-24.89,1.24
						c-9.87,1.34-18.11,7.99-27.35,11.69c-6.54,2.62-13.56,3.76-20.51,4.87c-23.42,3.76-46.85,7.53-70.27,11.29
						c-8,1.28-16.11,2.57-24.18,1.82c-9.76-0.91-18.98-4.76-27.92-8.78c-7.68-3.46-15.46-7.2-21.43-13.14
						c-5.34-5.32-9.18-12.32-15.68-16.13c-13.06-7.66-30.82,0.73-44.44-5.88c-6.22-3.02-10.67-8.78-16.48-12.53
						c-11.17-7.18-27.97-7.68-33.5-19.75c-4.21-9.18,0.41-21.7-6.54-29.02c-2.55-2.69-6.18-4.02-9.64-5.35
						c-13.04-5.02-27.35-12.53-30.85-27.26c-2.18-9.14-0.29-15.56,3.75-20.62c8.6-2.41,17.44-3.65,26.55-3.19
						c29.05,1.48,53.98,20.08,77.38,37.36c49.37,36.46,86.06,78.85,144.91,96.28C555.24,271.72,630.57,225.67,685.25,200.13z"/>
				</g>
				<g>
					
						<linearGradient id="SVGID_00000162331805565605623450000017139787400391226025_" gradientUnits="userSpaceOnUse" x1="422.4974" y1="209.4779" x2="422.9533" y2="310.9257">
						<stop  offset="2.200000e-07" style="stop-color:#5AA877"/>
						<stop  offset="0.244" style="stop-color:#479A72"/>
						<stop  offset="0.7328" style="stop-color:#268169"/>
						<stop  offset="1" style="stop-color:#197866"/>
					</linearGradient>
					<path style="fill:url(#SVGID_00000162331805565605623450000017139787400391226025_);" d="M710.48,253.27
						c-4.94,1.06-9.57,2.62-13.81,4.77c-25.96,13.19-66.05,29.49-111.47,29.67c-25.73,0.1-53.17-4.97-80.72-18.71
						c-33.89-16.9-56.46-20.48-74.59-17.25c-22.63,4.03-38.36,18.67-60.57,31.25c-9.65,5.47-17.93,7.02-25.9,5.71
						c-25.08-4.08-47.21-36.38-100.09-63.71c-10.63-5.49-22.52-7.04-35.49-5.95C150.617,223.864,72.402,279.927-11,274.212v87.858
						h868v-81.529C817.251,271.576,752.595,244.194,710.48,253.27z"/>
					
						<linearGradient id="SVGID_00000150810563732497911390000006917488177474564532_" gradientUnits="userSpaceOnUse" x1="202.8521" y1="256.8059" x2="343.42" y2="256.8059">
						<stop  offset="2.200000e-07" style="stop-color:#5AA877"/>
						<stop  offset="0.244" style="stop-color:#479A72"/>
						<stop  offset="0.7328" style="stop-color:#268169"/>
						<stop  offset="1" style="stop-color:#197866"/>
					</linearGradient>
					<path style="fill:url(#SVGID_00000150810563732497911390000006917488177474564532_);" d="M343.42,288.71
						c-0.46,0.33-0.93,0.64-1.43,0.92c-3.17,1.8-6.84,2.45-10.45,2.96c-23.41,3.37-47.21,2.33-70.85,1.28
						c-5.24-0.23-10.92-0.63-14.88-4.07c-2.7-2.34-4.18-5.75-6.46-8.51c-5.72-6.92-15.48-8.74-22.94-13.74
						c-8.02-5.37-13.21-14.72-13.54-24.35c-0.18-5.33,1.03-10.59,2.3-15.77c0.73-2.97,1.62-5.77,2.67-8.38
						c12.97-1.09,24.86,0.46,35.49,5.95C296.21,252.33,318.34,284.63,343.42,288.71z"/>
					
						<linearGradient id="SVGID_00000025414145142707917800000016350237403393653401_" gradientUnits="userSpaceOnUse" x1="429.89" y1="272.506" x2="585.2" y2="272.506">
						<stop  offset="2.200000e-07" style="stop-color:#5AA877"/>
						<stop  offset="0.244" style="stop-color:#479A72"/>
						<stop  offset="0.7328" style="stop-color:#268169"/>
						<stop  offset="1" style="stop-color:#197866"/>
					</linearGradient>
					<path style="fill:url(#SVGID_00000025414145142707917800000016350237403393653401_);" d="M585.2,287.71
						c-3.2,1.46-6.57,2.61-9.95,3.56c-8.98,2.55-18.44,3.88-27.68,2.53c-14.06-2.06-27.62-10.28-41.58-7.62
						c-9.81,1.87-20.1,8.91-28.81,4.04c-2.12-1.19-3.83-2.98-5.82-4.37c-7.16-5.01-16.85-4.26-24.91-7.64
						c-9.46-3.98-16.51-15.61-16.56-26.46c18.13-3.23,40.7,0.35,74.59,17.25C532.03,282.74,559.47,287.81,585.2,287.71z"/>
					
						<linearGradient id="SVGID_00000158736222611849493100000007562174891923296932_" gradientUnits="userSpaceOnUse" x1="710.48" y1="276.1362" x2="881.1201" y2="276.1362">
						<stop  offset="2.200000e-07" style="stop-color:#5AA877"/>
						<stop  offset="0.244" style="stop-color:#479A72"/>
						<stop  offset="0.7328" style="stop-color:#268169"/>
						<stop  offset="1" style="stop-color:#197866"/>
					</linearGradient>
					<path style="fill:url(#SVGID_00000158736222611849493100000007562174891923296932_);" d="M857,280.542
						c-39.749-8.965-104.405-36.348-146.52-27.271c2.47,13.51,19.66,23.47,29.74,30.95c4.44,3.3,8.37,7.32,13.18,10.06
						c8.52,4.85,18.8,5.14,28.6,5.32c21.73,0.39,43.46,0.77,65.2,1.16c3.241,0.057,6.529,0.104,9.8-0.001V280.542z"/>
				</g>
			</g>
			<g>
				<path style="fill:#729900;" d="M705.375,312.301c-1.592-1.123-4.466-0.599-4.812,1.248c-0.421-1.639-0.953-3.433-2.448-4.36
					c-1.495-0.927-4.133-0.083-3.971,1.598c-0.158-1.519-2.721-1.365-3.863-0.276c-1.142,1.089-1.96,2.711-3.554,3.001
					c-1.294,0.235-2.534-0.546-3.51-1.375c-0.976-0.829-1.947-1.789-3.237-2.034c-1.29-0.244-2.906,0.727-2.619,1.935
					c-0.708-1.052-1.568-2.202-2.876-2.399c-1.308-0.197-2.698,1.424-1.745,2.287c-0.968-2.175-5.14-1.748-5.604,0.574l-1.666-0.49
					c-1.795-0.528-3.769,0.52-4.046,2.273l-0.005,0.034c-1.386-1.819-5.07-0.998-5.455,1.215c-2.481-0.947-5.179-1.39-7.858-1.291
					c-4.573-0.512-8.946,1.608-4.917,6.333c3.607,1.086,11.845-0.48,15.636-0.501c6.898-0.038,13.798,0.719,20.496,2.248
					c1.647,1.418,4.502,1.33,6.058-0.185c0.797-0.776,1.343-1.895,2.437-2.216c0.705-0.207,1.462-0.018,2.171,0.17
					c2.557,0.68,5.115,1.359,7.672,2.039c-0.231-1.174,1.835-1.119,2.971-0.59s3.271-0.002,2.572-0.996l3.745,2.344
					c-0.503-0.547,0.287-1.403,1.057-1.43c1.276-0.046,2.416,1.067,3.864-0.169c0.754-0.643,1.13-1.662,0.734-2.541
					c-0.69-1.535-3.012-1.334-4.292-0.733C707.865,316.409,706.957,313.417,705.375,312.301z"/>
				<path style="fill:#729900;" d="M311.872,311.591c-3.727,1.239-1.206-8.424-10.539-8.757c-10.227-0.365-7.387,5.042-9.333,5.276
					c-5.429,0.654-7.757-0.604-12.618-3.15c-1.791-0.938-3.942-0.2-4.78,1.64l-0.035,0.076c-0.008-0.017-0.016-0.035-0.025-0.052
					c-1.177-2.427-4.822-1.91-5.473,0.707l-0.104,0.418c-1.267-1.63-2.672-3.356-4.662-3.907c-1.99-0.552-4.592,0.814-4.433,2.873
					c-3.901-3.445-10.006-4.118-14.563-1.606c-1.477-9.609-13.143-3.942-13.143-3.942c-3.262-7.279-8.833-4.833-12.009-1.195
					c2.4-3.801-4.053-6.807-7.491-7.764c-6.5-1.81-6.48,0.419-7.535,2.393c0,0-3.433-6.328-10.573-4.094
					c-2.275,0.712-3.867,2.771-4.167,5.135l-0.113,0.892c-2.392-1.7-5.079-3.481-7.996-3.162c-2.917,0.32-5.144-0.512-4.782,2.794
					c-2.167-8.333-9.548-2.264-9.548-2.264c-5.119-7.736-13.202,0.709-13.202,0.709s-0.75-5.112-5.584-3.973
					c-1.433,0.338-3.694,3.142-3.281,4.555c-2.06-1.803-2.458-1.745-5.357-0.978c-1.558,0.412-2.709,1.872-2.521,3.473
					c0.209,1.788,1.779,2.486,3.208,3.063c11.21,4.525,23.391,9.128,35.09,6.081c1.764-0.459,3.574-1.095,5.365-0.754
					c1.595,0.303,2.947,1.344,4.482,1.874c1.428,0.492,2.966,0.528,4.476,0.558c3.699,0.075,7.397,0.149,11.096,0.224
					c3.657,4.447,11.215,4.873,15.348,0.865c6.347,4.047,14.596,4.953,21.67,2.378c4.7,1.545,9.401,3.091,14.101,4.636
					c0.963,0.317,1.973,0.637,2.972,0.469c1.021-0.172,1.883-0.829,2.825-1.258c2.237-1.019,4.824-0.722,7.262-0.405
					c6.921,0.9,13.843,1.801,20.764,2.702c3.595,0.468,7.709,0.783,10.381-1.668c5.521,3.458,36.733,7.661,42.454,4.547
					c5.103,3.917,0.333-11.333-6.934-6.988c-3.058-8.105-6.431-5.264-9.801-2.527l0,0c0.121-1.482-0.957-2.787-2.432-2.941
					c-0.968-0.102-2.087-0.328-3.161-0.594c-2.48-0.615-4.936,1.06-5.292,3.589L311.872,311.591z"/>
				<path style="fill:#729900;" d="M466.977,309.911c-0.356-0.698,0.057-5.078-4.644-5.244c-1.353-0.048-3.59,3.562-3.973,2.264
					c-0.384-1.298-2.527-2.467-3.756-3.032c-1.23-0.566-2.844,1.717-2.525,3.032c-1.131-0.619-2.078-3.121-3.979-1.836
					c-0.864,0.621-0.035,2.5-0.052,3.749c-0.515-1.755-2.57-2.89-4.33-2.392c-7.051,0.478-7.066,5.199-6.218,7.547
					c0.507,1.405,7.398,2.277,8.809,2.577C447.026,318.765,468.276,312.457,466.977,309.911z"/>
				<path style="fill:#729900;" d="M521.526,305.717c-0.041-1.085-1.86-5.05-5.36-4.217c-4.833,0.736-3.592,5.053-5.096,4.217
					c-0.712-0.396-1.026-1.864-1.904-1.981c-1.729-0.23-1.432,0.49-1.687,1.264c-0.112-0.2-2.313-4-4.055-0.085
					c0,0-0.829-3.335-2.133-4.463c-2.708-2.342-7.389,2.315-6.684,5.826c-5.108-7.4-8.275-1.778-8.275-1.778
					c-8.167-3.333-10.5,3.448-7.5,5.833c2.432-0.547,13.759,2.103,14.877,4.331c0.871,1.242,2.714,1.676,4.048,0.954
					c0.436-0.236,0.851-0.587,1.348-0.585c0.523,0.001,0.949,0.392,1.407,0.644c2.748,1.513,6.677-1.888,9.079,0.13
					c0.249-0.764,0.499-1.529,0.748-2.293c3.64,1.003,18.686-2.849,22.326-1.846C533.82,308.965,530,303,521.526,305.717z"/>
				<path style="fill:#729900;" d="M426.809,312.295c-2.515-0.62-5.777,1.698-5.713,1.452c0.476-1.824-1.833-3.143-3.228-1.876
					c-0.463,0.421-1.441,0.549-1.481,0.351c-0.282-1.389-1.906-1.893-3.031-1.031c-0.113,0.086-0.763-4.482-4.474-3.028
					c-3.063,0.953-1.666,3.39-0.064,4.505c-1.629-1.987-5.665-3.483-6.538,0.351c-0.103,0.918,0.112,1.869,0.599,2.654
					c-1.47-0.232-3.661-3.914-6.709,0.728c0,0-9.54-2.307-6.703,3.363c-1.435,3.464,10.502-0.096,12.739,0.461
					c-0.668,0.909-0.51,2.321,0.342,3.06c0.852,0.739,2.273,0.695,3.078-0.095c0.068-0.717,0.385-1.409,0.885-1.927
					c1.089,1.327,2.361,2.756,4.07,2.923c1.709,0.167,3.482-1.924,2.389-3.248c1.322,1.918,3.719,3.039,6.038,2.822
					c0.652-1.495,0.112-3.413-1.224-4.349c2.337-1.499,8.762-0.615,10.572-2.743C429.176,315.703,429.258,312.899,426.809,312.295z"
					/>
				<path style="fill:#729900;" d="M738.994,317.824c2.151-1.691-0.445-4.99-3.565-4.528c0.007-0.01,0.014-0.021,0.021-0.031
					c1.032-1.544-0.657-3.334-3.034-3.389l-1.043-0.024c0,0-2.082-3.019-5.541,0.088c-1.213,1.09-0.495,2.909,1.022,3.779
					c-2.779-0.561-5.617,1.431-5.749,3.507c-0.131,2.077,1.716,3.978,3.948,5.296c2.403,1.419,6.746,2.047,8.047,0.014
					c1.578,0.984,3.494,1.684,5.528,2.02l0.318-2.035c2.053,0.507,4.538-0.761,4.554-2.325
					C743.516,318.633,741.057,317.339,738.994,317.824z"/>
				
					<linearGradient id="SVGID_00000128444448262395894080000014821691616710745000_" gradientUnits="userSpaceOnUse" x1="423" y1="314.3334" x2="423" y2="339.0002">
					<stop  offset="0" style="stop-color:#A2D100"/>
					<stop  offset="1" style="stop-color:#729900"/>
				</linearGradient>
				<path style="fill:url(#SVGID_00000128444448262395894080000014821691616710745000_);" d="M572.765,313.389
					c-27.179-3.016-54.527-5.201-81.869-4.79c-34.23,0.514-68.003,7.733-102.149,10.2c-66.82,4.828-133.411-8.575-200.016-15.787
					c-19.924-2.157-39.932-3.695-59.974-4.053c-35.939-0.643-72.319,2.464-106.771,13.202c-9.245,2.882-27.032,6.071-32.987,15.176
					v60.051c169.547-5.581,339.094-11.162,508.641-16.743c56.826-1.87,113.653-3.741,170.494-5.105
					c62.946-1.51,125.906-2.399,188.865-3.212v-48.951C777.35,324.462,628.39,319.563,572.765,313.389z"/>
				<path style="fill:#0C844B;" d="M857,331.125c-1.407-1.128-3.158-2.029-5.5-2.458c-13.5-2.167-12.082,4.793-18.47,5.391
					c0.81-1.575-0.939-5.505-2.697-5.724c-4-0.5-6.239,2.811-8,3c-4.026,0.433-5.022-3.412-9-4.167
					c-5.898-1.119-12.315,5.538-17.009,3.729c-1.77-0.682-3.856-0.266-4.957,1.278c-0.077,0.108-0.144,0.216-0.2,0.326
					c-5.435-7.665-11.833-3.667-13.513,1.521l-0.411-1.209c-0.778-2.289-4.014-2.292-4.796-0.005l-0.024,0.071l0.01-0.049
					c0.538-2.65-3.014-4.117-4.463-1.834c-0.583,0.919-0.954,1.972-1.044,3.057c-4.925-6.886-17.995-7.704-18.748-0.968
					c-0.734-2.643-4.025-0.918-5.809,1.179c-0.015-0.001-0.019-0.001-0.035-0.001c-1.648-2.119-4.516-2.892-7.118-1.956
					c-0.756,0.272-1.596,0.014-1.989-0.686l-0.001-0.002c-0.011-1.586-1.926-2.371-3.026-1.253
					c-4.143,4.214-11.232,5.669-16.621,3.258c-2.224-0.995-4.836-0.26-6.187,1.766l-0.073,0.109
					c-0.106-3.122-3.808-4.768-6.925-4.966c-3.117-0.197-6.566,0.21-9.058-1.672c-2.892-2.184-8.336,0.306-7.11,4.045
					c-3.214-0.944-6.428-1.888-9.643-2.831c-2.793-0.82-6.926-0.877-7.412,1.993c-5.776-4.211-14.56-3.585-19.68,1.403
					c-1.768-2.597-6.448-1.366-7.268,1.451c0.009-1.328-1.715-2.524-3.216-2.418c-0.818,0.058-1.597,0.317-2.373,0.596
					c-1.938-0.305-4.02-0.251-5.902-0.176c-0.589-0.133-1.148-0.26-1.737-0.393c-2.022-1.127-4-2.603-6.247-3.029
					c-3.329-0.632-6.934,1.016-10.329,2.339l-0.001-0.001c-0.387-2.182-3.44-2.24-3.959-0.114c-0.115,0.473-0.206,0.951-0.271,1.434
					c-0.171,0.03-0.519-0.194-0.953-0.555c-1.914-1.593-4.815-0.869-5.682,1.464l-0.044,0.118c-3.51-6.686-6.677-6.853-10.843-4.186
					c-0.566-1.665-1.816-3.687-4.5-3.833c-4.167,0.833-4.167,3.5-3.49,5.469c-1.645-3.184-2.94-4.132-5.01-2.969
					c-2.667,1-3.653,4.412-1.917,5.193c-4.458-2.12-10.648-4.269-12.16,0.212c-0.13,0.05-0.185,0.072-0.315,0.122
					c-3.125-1.825-6.221-1.972-8.913-1.049c-0.812,0.098-1.571,0.445-2.134,1.06c-0.047-0.001-0.064-0.001-0.111-0.002l-0.034-0.043
					c-1.449-1.813-3.805-2.636-6.069-2.124c-1,0.227-2.074,0.112-2.957-0.417c0-0.001-0.001-0.001-0.001-0.001
					c-0.016-1.633-1.875-2.514-3.159-1.532c-3.1,2.369-7.728,2.369-12.038,0.709c-3.796-1.462-8.096-0.099-10.33,3.302l-0.028,0.043
					c-0.106-3.122-4.16-3.41-7.277-3.608c-3.117-0.197-4.064,0.017-6.556-1.866c-2.892-2.184-0.5-5.515-5.833-5.515
					c-7.167,0.682-8.485,5.682-6.058,9.084c-3.681-1.081-3.681-1.081-7.363-2.162c-2.793-0.82-6.926-0.877-7.412,1.993
					c-5.776-4.211-14.56-3.585-19.68,1.403c-1.962-2.882-9.463-3.459-9.337,0.025c-2.363-2.992-4.316-6.162-9.816-2.662
					c-5.276,3.358-9-9.077-13.167-0.167c-0.495-2.453-3.167-5.333-5.9-4.521c-2.933,1.187-3.641,3.193-3.767,6.187
					c-1.877-1.54-8-7.167-9.079-1.5c-4.061-0.068-3.677-0.39-6.334-2.396c-2.525-1.906-6.174-0.408-6.618,2.724l-0.023,0.163
					c-0.2,1.414-2.047,1.73-2.688,0.495l-0.086-0.167c-1.308-2.52-5.157-1.634-5.171,1.205c0,0.047,0,0.095,0,0.142
					c-3.853-2.037-12.259-4.835-13.999,1.319c-6.001-8.986-10.622-0.752-10.692-0.813c-11.642-7.84-17.425-0.059-17.425-0.34
					c0-2.833-2.159-3.167-4.217-3.167c-1.818,0-2.904,1.518-3.413,1.219c-1.506-0.884-1.191-1.601-2.865-1.868
					c-0.707-0.113-1.435-0.039-2.117,0.181c-4.353,1.4-6.258,0.915-10.377,2.135c0,0-6.062-5-7.895,1.667
					c0.167-4.667-5.833-5.833-12.167-3c-6.388,0.598-12.833-4.667-16.927,3.411c0.81-1.575-1.275-3.256-3.042-3.131
					c-1.767,0.125-3.356,1.184-5.117,1.374c-4.026,0.433-7.163-3.621-11.142-4.375c-5.899-1.119-12.668,4.922-17.589,3.619
					c-1.608-0.426-3.29,0.361-4.045,1.844l-0.017,0.033c-5.954-7.775-12.223-5.275-13.615-0.977l-0.41-1.208
					c-0.778-2.289-4.014-2.292-4.796-0.005l-0.024,0.071c0.338-1.616-0.32-3.399-1.628-4.407c-3.48-1.083-4.704,2.084-3.869,5.581
					c-4.27-5.164-10.778-5.831-18.749-0.968c-0.736-2.651-4.046-0.906-5.843,1.177h0c-1.664-2.121-4.523-2.888-7.115-1.957
					c-0.756,0.271-1.598,0.015-1.992-0.685l-0.001-0.001c-0.016-1.654-1.919-2.479-3.183-1.44
					c-4.102,3.371-10.928,3.362-16.228,1.044c-2.267-0.991-4.909-0.334-6.281,1.725l-0.214,2.551
					c-0.106-3.122-3.808-4.768-6.925-4.965c-3.117-0.197-6.566,0.21-9.058-1.672c-0.671-0.507-1.198-1.121-1.611-1.812
					c-2.016-3.366-7.456-1.27-6.498,2.535c0.395,1.569-4.962,1.571-8.644,0.49c-2.793-0.82-6.926-0.877-7.412,1.993
					c-5.776-4.211-14.56-3.585-19.68,1.403c-1.962-2.882-7.528-1.057-7.403,2.428c-2.363-2.992-8.464-7.3-12.274-7.176
					c-6.25,0.204-7.706,4.145-13.957,4.349c-1.603-6.75-8.358-4.367-8.375-1.518c-0.005,0,0.002,0-0.003,0
					c-1.168-3.83-7.187-2.211-7.666,0.169c-3.995-0.067-6.693-2.178-9.833-2.667c-2.384-0.371-5.12,2.548-5.459,4.936
					c-1.388-7.866-8.045-3.687-8.041-0.936c0,0-11.236-4.89-12.976,1.264c-12.104-7.388-24.38,6.616-13.858,14.569
					c4.244,3.208,663.017,2.37,860.333,2.16V331.125z"/>
				<path style="fill:#0C844B;" d="M640.116,335.468c-0.005,0.053-0.008,0.107-0.01,0.16c-0.019,0.002-0.037,0.004-0.056,0.005
					C640.078,335.578,640.094,335.523,640.116,335.468z"/>
			</g>
			<g>
				
					<linearGradient id="SVGID_00000134250615207691351490000016151188629075845253_" gradientUnits="userSpaceOnUse" x1="429.4096" y1="332.7303" x2="425.7996" y2="403.1254">
					<stop  offset="0" style="stop-color:#96EFEB"/>
					<stop  offset="0.0941" style="stop-color:#89E9E4"/>
					<stop  offset="0.5141" style="stop-color:#53D2C9"/>
					<stop  offset="0.8288" style="stop-color:#32C3B7"/>
					<stop  offset="1" style="stop-color:#25BEB1"/>
				</linearGradient>
				
					<rect y="337.433" style="fill:url(#SVGID_00000134250615207691351490000016151188629075845253_);" width="850" height="162.567"/>
				<g>
					<path style="opacity:0.2;fill:#FFFFFF;" d="M857,349.141c-3.63,0.119-7.199,0.496-10.582,1.061
						c-9.87,1.649-18.995,6.838-28.876,8.055c-11.185,1.377-19.299-5.139-30.013-5.978c-6.335-0.496-12.488,1.964-18.343,4.431
						c-16.939,7.137-34.339,14.863-52.719,14.693c-21.249-0.197-41.02-10.934-62.103-13.595
						c-29.495-3.723-58.948,8.564-88.637,7.029c-11.39-0.589-25.138-1.25-36.525-1.886c-19.396-1.084-79.525,5.05-53.216,11.784
						c25.895,3.319,54.802,1.642,82.204,2.464c3.367,0.101,6.811,0.217,9.947,1.446c3.368,1.32,6.133,3.829,9.375,5.435
						c6.787,3.364,14.817,2.451,22.327,1.459c16.214-2.141,32.428-4.282,48.642-6.423c7.69-1.016,16.019-1.915,22.753,1.935
						c4.962,2.837,8.355,7.915,13.36,10.676c13.915,7.678,31.08-5.817,46.642-2.59c10.252,2.126,17.86,11.15,27.936,13.999
						c13.094,3.703,26.698-3.756,40.306-3.75c16.298,0.007,30.649,10.581,46.599,13.931c3.505,0.736,7.193,1.107,10.926,1.104
						V349.141z"/>
					<path style="opacity:0.2;fill:#FFFFFF;" d="M329,351.13c-3.95-6.796-43.674-1.522-62.962-2.356
						c-15.47-0.669-30.936-1.448-46.401-2.226c-24.013-1.209-48.026-2.418-72.04-3.627c-13.914-0.701-27.92-1.398-41.731,0.43
						c-14.134,1.871-28.124,6.38-42.333,5.194c-7.505-0.627-15.041-2.838-22.449-1.48c-9.735,1.784-19.096,9.589-28.418,6.263
						c-3.812-1.36-6.735-4.392-9.978-6.813c-3.49-2.606-8.498-5.117-13.689-6.372v21.377c15.32,0.295,33.256-6.539,46.268-4.809
						c6.327,0.841,12.466,3.764,18.809,3.061c4.896-0.543,9.279-3.193,13.994-4.616c11.121-3.357,23.144,0.288,34.681-1.063
						c9.695-1.135,19.176-5.796,28.802-4.177c4.84,0.814,9.297,3.178,14.103,4.171c10.617,2.192,21.534-2.493,32.34-1.633
						c5.027,0.4,9.873,1.99,14.827,2.932c18.91,3.597,38.364-2.337,57.577-1.157c8.663,0.532,17.234,2.526,25.242,5.872
						c4.092,1.709,8.57,3.808,12.766,2.375c1.997-0.682,3.656-2.103,5.589-2.95c5.552-2.433,11.865,0.253,17.903,0.793
						C317.94,360.856,330.798,356.919,329,351.13z"/>
					<path style="opacity:0.1;fill:#FFFFFF;" d="M406.061,356.239c-10.058,2.547-20.52,3.489-30.871,2.779
						c-9.692-0.665-21.234-2.069-27.41,5.43c12.098,0.701,24.111,2.869,35.691,6.44c2.596,0.8,5.796,3.013,4.581,5.443
						c-0.696,1.392-2.479,1.755-4.022,1.955c-11.186,1.45-22.373,2.901-33.56,4.351c8.715,9.78,25.375,3.083,37.476,8.098
						c3.49,1.446,6.527,3.864,10.077,5.156c6.084,2.215,12.798,0.875,19.21-0.017c15.437-2.146,31.256-1.509,46.47,1.872
						c7.003,1.556,16.227,2.767,19.605-3.562c-23.757-6.495-48.541-9.215-73.141-8.026c-5.563,0.269-12.079,0.337-15.521-4.042
						c4.795-2.118,9.996-3.312,15.235-3.499c1.379-2.434-3.12-3.773-4.713-6.073c-2.204-3.182,2.45-7.2,6.286-6.672
						c3.835,0.529,7.029,3.282,10.804,4.142c3.775,0.859,8.899-2.062,7.589-5.705c13.31,0.057,26.625-1.024,39.752-3.225
						c3.349-0.562,7.48-2.044,7.65-5.436c-4.94-2.034-10.521-2.474-15.719-1.239c-1.875,0.446-3.79,1.107-5.684,0.752
						c-2.311-0.434-4.147-3.158-6.565-4.036c-3.123-1.134-9.616-1.353-12.971-1.418
						C425.973,349.507,415.922,353.741,406.061,356.239z"/>
				</g>
			</g>
			<g>
				<g>
					<path style="fill:#605822;" d="M142.9,252.32c-5.32,2.24-15.94,10.18-18.9,15.26c-1.44,2.48-6.06,5.23-7.73,7.49
						c-9.47,12.89-15.28,27.66-12.13,40.14c2.85,11.24-4.8,21.15-7.33,32.47c-2.33,9.71-2.42,16.93-2.83,27
						c-0.3,7.38,4.79,17.99,3.34,25.23c-4.97,0.64-11.78,2.91-18.52,4.68c-6.46,1.7-12.85,2.94-17.51,1.85
						c0.6-20.25,5.76-49.66,14.98-67.71c2.82-5.52,6.06-10.97,7.2-17.07c1.2-6.4-0.01-13.13,1.65-19.43
						c2.14-8.11,8.92-15.9,6.11-23.8c-1.55-4.35-5.72-7.29-7.66-11.49c-1.5-3.25-5.27-19.34-4.78-22.89
						c0.16-1.18,0.51-2.49,0.98-3.73c1.54-4.1,4.33-7.34,5.69-2.01c0.19,11.67,3.8,26.08,11.45,34.88
						c2.65-1.24,5.88-10.05,7.23-23.27c1.49-14.48,10.52-25.61,7.59-39.86c4.38,4.09,4.9,10.78,4.77,16.78
						c-0.21,9.42-2.67,13.41-4.63,22.64c-0.98,4.58-0.79,14.54-2.19,19.01c5.9,0.08,10.23-5.26,13.86-9.91
						c3.63-4.65,15.65-11.39,19.93-11.75C143.65,249.67,145.52,251.22,142.9,252.32z"/>
					<path style="fill:#544C1E;" d="M99.07,290.09c-0.67,5.83-5.49,10.96-4.7,16.77c0.22,1.64,0.89,3.19,0.99,4.84
						c0.27,4.48-3.53,8.06-5.09,12.27c-2.2,5.96,0.27,12.78-1.47,18.89c-0.61,2.13-1.71,4.08-2.59,6.12
						c-1.9,4.41-2.76,9.19-3.6,13.93c-1.65,9.3-3.31,18.65-3.43,28.1c-0.06,4.48,0.17,9.15-0.38,13.58
						c-6.46,1.7-12.85,2.94-17.51,1.85c0.6-20.25,5.76-49.66,14.98-67.71c2.82-5.52,6.06-10.97,7.2-17.07
						c1.2-6.4-0.01-13.13,1.65-19.43c2.14-8.11,8.92-15.9,6.11-23.8c-1.55-4.35-5.72-7.29-7.66-11.49
						c-1.5-3.25-5.27-19.34-4.78-22.89c0.16-1.18,0.51-2.49,0.98-3.73c0.42,4.19,1.51,8.13,3.63,11.52
						c1.04,1.48,3.74,8.35,4.03,10.32C88.89,272.31,100.24,279.89,99.07,290.09z"/>
					<path style="fill:#3D6800;" d="M168.58,239.82c3.3,2.97,3.69,8.63,0.82,12.03c-2.87,3.4-8.52,3.96-12.01,1.2
						c-1.08,4.14-6.44,5.86-10.53,4.57c-4.08-1.29-7.13-4.63-9.97-7.84c-0.7,1.75-3.39,7.22-11.64,7.22
						c-7.64-1.85-13.38-7.52-13.38-7.52c-1.39-0.34-4.12,5.27-12.13,4.24c-5.65-0.73-9.57-4-12.3-9c-2.96,3.08-6.13,6.29-10.25,7.44
						C73.08,253.31,67,251.25,66,244.5c-5.39,3.06-13.77,0.64-15.25-2.75c-0.39-0.9-3.56-5.55,3.08-11.28
						c-5.08,0.03-10.08-9.72-1.33-11.74c-4.17-1.03-4.89-5.38-5.14-7.73c-0.34-3.25,2.16-4.44,5.53-5.44
						c-6.39-4.56,2.86-9.31,2.86-9.31c-5-5.5,1.25-13.25,11-9c1.15,0.5-4-5.5,2.75-11.25c3.9-3.32,7.24-2.48,12.32-1.88
						c0,0-3.99-6.08,1.18-9.62c0.9-0.62,1.82-0.96,2.71-1.11c3.41-0.6,6.51,1.54,7.16,2.02c-3.05-2.62-0.33-7.18,3.69-8.01
						c1.62-0.34,6.23,2.1,6.23,2.1s1.95-4.31,3.7-4.97c3.24-1.23,13.26-3.03,18.76,11.47c8.75-9.75,19.03,1.5,14.75,8.5
						c0,0,5.42-3.56,9.75-1c6.03,3.56,4.05,10.43,3.95,10.79c0.31-0.16,7.88-3.96,11.55-0.04c4.5,3.25,1.21,11.18,2.77,11.37
						c5.48,0.63,6.46,5.68,6.4,9.21s-1.53,6.86-2.97,10.08c1.83-0.07,3.14,0.22,4.06,0.76c4.64,2.7-0.76,11.58-0.76,11.58
						c0.26,0.96,3.72,1.75,3.72,6.97C178.47,239.1,172.74,239.76,168.58,239.82z"/>
					<path style="fill:#3A5E02;" d="M168.58,239.82c3.3,2.97,3.69,8.63,0.82,12.03c-2.87,3.4-8.52,3.96-12.01,1.2
						c-1.08,4.14-6.44,5.86-10.53,4.57c-4.08-1.29-7.13-4.63-9.97-7.84c-0.7,1.75-3.39,7.22-11.64,7.22
						c-7.64-1.85-13.38-7.52-13.38-7.52c-1.39-0.34-4.12,5.27-12.13,4.24c-5.65-0.73-9.57-4-12.3-9c-2.96,3.08-6.13,6.29-10.25,7.44
						C73.08,253.31,67,251.25,66,244.5c-5.39,3.06-13.77,0.64-15.25-2.75c-0.39-0.9-3.56-5.55,3.08-11.28
						c-5.08,0.03-10.08-9.72-1.33-11.74c-4.17-1.03-4.89-5.38-5.14-7.73c-0.34-3.25,2.16-4.44,5.53-5.44
						c-6.39-4.56,2.86-9.31,2.86-9.31c-5-5.5,1.25-13.25,11-9c1.15,0.5-4-5.5,2.75-11.25c3.9-3.32,7.24-2.48,12.32-1.88
						c0,0-3.99-6.08,1.18-9.62c0.9-0.62,1.82-0.96,2.71-1.11c-0.48,2.4-0.63,4.8,0.5,7.16c1.49,3.1,4.07,5.52,6.59,7.86
						c-4.8,4.29-6.2,11.93-3.23,17.63c0.78,1.51,1.85,2.96,1.97,4.65c0.08,1.11-0.27,2.19-0.47,3.28
						c-1.13,6.1,2.82,12.72,8.71,14.64c2.21,0.72,4.93,1.07,6.01,3.13c0.66,1.25,0.46,2.76,0.7,4.15c0.82,4.92,6.7,7.29,11.68,7.05
						c1.17-0.05,2.48-0.17,3.39,0.57c0.77,0.61,1.03,1.64,1.44,2.53c1.28,2.78,4.5,4.53,7.52,4.07c1.65-0.24,3.25-1.07,4.9-0.82
						c2.1,0.3,3.54,2.2,5.32,3.36c3.57,2.32,8.93,1.18,11.25-2.39c0.71-1.09,1.25-2.44,2.44-2.95c1.32-0.57,2.81,0.15,4.25,0.3
						c3.61,0.37,6.79-3.92,5.39-7.27c4.66,0.48,8.98-4.58,7.76-9.11c2.3-0.86,3.16-3.04,3.68-5.56c4.64,2.7-0.76,11.58-0.76,11.58
						c0.26,0.96,3.72,1.75,3.72,6.97C178.47,239.1,172.74,239.76,168.58,239.82z"/>
				</g>
				<g>
					<path style="fill:#325100;" d="M74.626,201.829c-0.898,1.445-0.852,3.239,0.185,4.62c0.526,0.7,1.288,1.246,2.143,1.465
						c1.278,0.328,2.183-0.407,2.852,1.032c0.858,1.844,1.339,3.29,3.441,4.127c1.568,0.625,3.441,0.633,4.718-0.559
						c0.566-0.528-0.038-1.346-0.707-1.214c-1.46,0.287-2.747,0.547-4.134-0.228c-1.821-1.018-1.335-2.425-2.284-3.909
						c-0.417-0.653-0.925-0.871-1.661-1.02c-0.788-0.16-1.298,0.012-2.045-0.342c-1.207-0.571-1.83-1.873-1.192-3.203
						C76.361,201.722,75.15,200.985,74.626,201.829L74.626,201.829z"/>
				</g>
				<g>
					<path style="fill:#325100;" d="M109.688,219.011c0.155,2.524,1.68,4.886,4.154,5.704c2.304,0.761,5.659-0.031,6.729-2.386
						c0.259-0.57-0.324-1.41-0.962-0.962c-1.541,1.082-2.864,2.204-4.9,1.841c-2.203-0.393-3.616-2.196-3.916-4.346
						C110.706,218.236,109.65,218.382,109.688,219.011L109.688,219.011z"/>
				</g>
				<g>
					<path style="fill:#325100;" d="M68.896,226.019c-0.043,3.758,2.951,6.989,6.898,6.052c0.955-0.227,1.584-0.865,2.444-1.235
						c1.93-0.831,2.711-0.175,4.242,0.536c2.098,0.975,4.511,0.374,6.598-0.313c0.984-0.324,0.587-1.814-0.43-1.559
						c-1.009,0.253-2.082,0.575-3.12,0.639c-1.854,0.114-2.354-0.693-3.885-1.476c-0.75-0.384-0.786-0.639-1.656-0.659
						c-0.84-0.02-1.174,0.309-1.893,0.775c-1.387,0.898-1.334,1.219-3.149,1.447c-2.582,0.324-4.609-1.455-4.712-4.206
						C70.2,225.163,68.906,225.156,68.896,226.019L68.896,226.019z"/>
				</g>
				<g>
					<path style="fill:#325100;" d="M120.113,200.667c1.811,1.364,3.71,3.632,6.243,3.386c0.745-0.072,1.525-0.313,2.103-0.812
						c0.549-0.473,0.662-1.793,1.049-2.101c1.486-1.181,5.148,1.216,7.309,0.954c2.452-0.298,4.201-1.568,4.964-3.861
						c0.306-0.919-0.958-1.293-1.456-0.614c-1.528,2.081-3.789,2.764-6.362,2.448c-1.11-0.136-1.976-0.912-3.036-1.121
						c-0.526-0.104-1.042-0.303-1.58-0.062c-0.435,0.195-0.622,0.73-0.941,0.979c-0.114,0.293-0.228,0.586-0.342,0.88
						c-1.9,1.459-3.513,1.622-4.84,0.488c-0.832-0.422-1.654-1.222-2.424-1.737C120.058,198.997,119.432,200.154,120.113,200.667
						L120.113,200.667z"/>
				</g>
				<g>
					<path style="fill:#729900;" d="M135.067,225.934c2.699,2.674,8.618,1.856,9.344-2.326c0.114-0.654-0.771-1.136-1.135-0.479
						c-1.393,2.511-4.844,4.008-7.265,1.859C135.373,224.423,134.451,225.324,135.067,225.934L135.067,225.934z"/>
				</g>
				<g>
					<path style="fill:#325100;" d="M88.059,186.4c-2.294,5.997,5.036,11.694,9.938,7.094c0.604-0.567-0.173-1.561-0.88-1.141
						c-4.098,2.432-9.356-0.672-7.837-5.617C89.523,185.944,88.345,185.654,88.059,186.4L88.059,186.4z"/>
				</g>
				<g>
					<path style="fill:#325100;" d="M105.39,175.341c-0.751,2.219,0.118,4.851,2.214,6.011c2.096,1.16,4.822,0.658,6.048-1.454
						c0.328-0.565-0.348-1.318-0.93-0.93c-1.158,0.773-2.749,1.323-4.102,0.77c-1.565-0.639-2.197-2.442-1.783-3.997
						C107.087,174.8,105.697,174.433,105.39,175.341L105.39,175.341z"/>
				</g>
				<g>
					<path style="fill:#729900;" d="M101.227,232.03c0.132,4.361,3.387,6.377,7.383,5.485c1.003-0.224,2.091-0.976,3.233-0.517
						c0.469,0.188,1.028,1.053,1.475,1.373c0.632,0.453,1.337,0.827,2.069,1.094c2.159,0.788,4.425,0.695,6.403-0.442
						c0.609-0.35,0.204-1.324-0.479-1.135c-1.835,0.507-3.692,0.899-5.573,0.305c-1.646-0.519-2.461-2.136-3.903-2.711
						c-0.618-0.246-0.893-0.248-1.661-0.138c-0.39,0.056-0.867,0.447-1.14,0.517c-2.862,0.732-6.291,1.319-6.751-3.83
						C102.222,231.365,101.206,231.341,101.227,232.03L101.227,232.03z"/>
				</g>
				<g>
					<path style="fill:#729900;" d="M142.671,209.564c3.674,1.999,8.463,1.276,10.932-2.218c0.492-0.696-0.579-1.475-1.16-0.895
						c-2.415,2.416-5.913,3.491-9.11,1.98C142.58,208.074,141.918,209.154,142.671,209.564L142.671,209.564z"/>
				</g>
				<g>
					<path style="fill:#325100;" d="M142.142,235.956c1.707,1.344,3.629,2.872,5.921,2.857c2.423-0.016,2.659-1.436,4.155-2.672
						c1.555-1.285,4.468-0.303,6.43-1.475c1.974-1.179,3.233-2.902,3.285-5.208c0.013-0.573-0.817-0.809-1.092-0.296
						c-1.171,2.182-2.311,3.841-4.784,4.544c-1.357,0.386-2.716-0.088-4.001,0.323c-0.542,0.173-0.651,0.556-1,0.855
						c-1.698,1.455-2.21,2.89-4.713,2.202c-1.234-0.339-2.462-1.295-3.505-2.031C142.311,234.682,141.629,235.551,142.142,235.956
						L142.142,235.956z"/>
				</g>
				<g>
					<path style="fill:#729900;" d="M97.041,204.019c0.295,4.374,6.089,7.706,9.341,3.848c0.358-0.424,0.03-1.323-0.616-1.058
						c-3.078,1.262-6.408,0.631-7.229-2.993C98.351,202.99,96.983,203.155,97.041,204.019L97.041,204.019z"/>
				</g>
				<g>
					<path style="fill:#729900;" d="M119.045,187.737c1.496,2.731,5.395,5.671,8.089,2.466c0.514-0.611,0.473-1.271,0.79-1.918
						c0.817-1.666,1.774-1.403,3.258-1.567c1.604-0.178,2.853-1.094,3.443-2.561c0.24-0.595-0.651-1.061-1.058-0.616
						c-0.725,0.793-1.213,1.285-2.252,1.587c-0.992,0.288-1.336-0.079-2.361-0.067c-0.697,0.008-1.207,0.025-1.725,0.545
						c-0.493,0.494-0.471,1.192-0.676,1.801c-1.309,3.879-4.687,2.388-6.434-0.297C119.683,186.442,118.658,187.031,119.045,187.737
						L119.045,187.737z"/>
				</g>
				<g>
					<path style="fill:#729900;" d="M77.03,185.52c-1.322,1.42-1.798,3.462-0.96,5.265c0.777,1.672,2.747,3.03,4.586,2.324
						c0.424-0.162,0.637-0.83,0.14-1.071c-1.023-0.496-2.186-0.931-2.787-1.958c-0.673-1.148-0.421-2.512,0.328-3.553
						C78.891,185.758,77.668,184.835,77.03,185.52L77.03,185.52z"/>
				</g>
				<g>
					<path style="fill:#729900;" d="M63.98,209.196c-1.002,1.913-0.927,4.232,0.415,5.972c1.219,1.58,3.479,2.596,5.34,1.578
						c0.407-0.223,0.329-0.901-0.132-1.007c-1.325-0.306-2.747-0.445-3.78-1.424c-1.223-1.158-1.459-3.005-0.812-4.517
						C65.306,209.113,64.345,208.498,63.98,209.196L63.98,209.196z"/>
				</g>
				<g>
					<path style="fill:#729900;" d="M116.12,169.727c0.497,2.686,3.847,5.761,6.681,4.171c0.475-0.266,0.415-1.111-0.16-1.221
						c-1.066-0.203-2.062-0.22-3.045-0.752c-1.046-0.567-1.803-1.42-2.143-2.566C117.197,168.495,115.96,168.861,116.12,169.727
						L116.12,169.727z"/>
				</g>
				<g>
					<path style="fill:#729900;" d="M124.519,212.748c0.289,1.875,1.824,3.162,3.618,3.589c1.579,0.376,3.825,0.048,4.473-1.662
						c0.164-0.432-0.338-0.915-0.764-0.764c-1.135,0.404-1.961,0.942-3.229,0.685c-1.201-0.243-2.254-1.067-2.629-2.253
						C125.685,211.388,124.372,211.797,124.519,212.748L124.519,212.748z"/>
				</g>
				<g>
					<path style="fill:#544C1E;" d="M90.528,360.974c-0.133-4.518,0.574-8.135,2.549-12.2c0.891-1.832,1.461-3.61,1.674-5.642
						c0.327-3.116-0.152-6.236,0.395-9.348c0.553-3.146,1.981-5.974,3.122-8.927c0.196-0.508-0.575-0.947-0.921-0.536
						c-3.693,4.389-4.194,10.09-4.108,15.612c0.062,3.971-0.995,6.776-2.402,10.495c-1.348,3.563-1.437,6.716-1.201,10.546
						C89.672,361.541,90.545,361.551,90.528,360.974L90.528,360.974z"/>
				</g>
				<g>
					<path style="fill:#544C1E;" d="M99.5,316.866c-0.432,0.165-0.805,0.168-1.073,0.625c-0.265,0.452-0.273,1.01-0.173,1.512
						c0.192,0.962,1.078,2.03,2.16,1.692c0.622-0.195,0.697-0.986,0.175-1.338c-0.312-0.21-0.618-0.343-0.757-0.731
						c-0.158-0.44,0.044-0.886-0.096-1.329c-0.014,0.107-0.028,0.215-0.042,0.322c0.042-0.062,0.091-0.118,0.149-0.166
						C100.082,317.222,99.837,316.737,99.5,316.866L99.5,316.866z"/>
				</g>
				<g>
					<path style="fill:#544C1E;" d="M98.608,311.554c-0.486,1.883,1.809,4.18,3.542,2.716c0.366-0.31,0.068-0.956-0.389-0.94
						c-0.784,0.028-2.096-0.419-1.932-1.439C99.955,311.105,98.816,310.748,98.608,311.554L98.608,311.554z"/>
				</g>
				<g>
					<path style="fill:#544C1E;" d="M100.272,305.667c-0.103-0.908-0.138-1.942-0.491-2.791c-0.151-0.364-0.828-0.519-0.904,0
						c-0.141,0.967,0.066,1.991,0.198,2.953C99.168,306.502,100.35,306.35,100.272,305.667L100.272,305.667z"/>
				</g>
				<g>
					<path style="fill:#544C1E;" d="M102.422,296.307c-0.282-2.823,2.884-4.336,3.356-6.958c0.187-1.038-0.157-2.008-0.38-3.006
						c-0.509-2.289-0.529-4.367-0.621-6.686c-0.024-0.605-0.807-0.67-1.013-0.137c-1.45,3.759,1.647,7.52,0.223,10.992
						c-0.874,2.132-2.686,3.422-2.234,5.887C101.823,296.77,102.46,296.69,102.422,296.307L102.422,296.307z"/>
				</g>
				<g>
					<path style="fill:#544C1E;" d="M109.637,281.358c-0.112-1.363,0.14-2.66,0.801-3.862c0.577-1.049,1.525-1.76,2.161-2.749
						c0.294-0.457-0.191-1.027-0.688-0.895c-2.972,0.79-3.712,5.086-3.125,7.621C108.893,281.941,109.677,281.851,109.637,281.358
						L109.637,281.358z"/>
				</g>
				<g>
					<path style="fill:#544C1E;" d="M100.127,275.01c0.003,1.137,0.757,2.054,1.813,2.416c0.98,0.336,2.546,0.151,2.679-1.108
						c0.038-0.362-0.322-0.603-0.633-0.633c-0.534-0.051-0.977,0.285-1.526,0.116c-0.485-0.15-0.873-0.47-0.976-0.974
						C101.327,274.052,100.125,274.243,100.127,275.01L100.127,275.01z"/>
				</g>
				<g>
					<path style="fill:#544C1E;" d="M102.698,270.51c0.384,0.985,1.172,1.695,2.205,1.961c0.874,0.225,2.467,0.142,2.721-0.951
						c0.101-0.432-0.194-0.758-0.61-0.801c-0.576-0.06-1.108,0.361-1.723,0.29c-0.632-0.073-1.133-0.434-1.415-0.995
						C103.553,269.371,102.43,269.824,102.698,270.51L102.698,270.51z"/>
				</g>
				<g>
					<path style="fill:#544C1E;" d="M105.714,266.393c1.648,0.157,2.704-1.164,2.841-2.716c0.122-1.382-0.315-2.693-0.099-4.086
						c0.211-1.365,0.906-2.564,1.041-3.935c0.04-0.408-0.558-0.643-0.82-0.34c-0.964,1.117-1.436,2.632-1.644,4.082
						c-0.209,1.466,1.032,5.872-1.318,5.917C105.008,265.328,105.034,266.328,105.714,266.393L105.714,266.393z"/>
				</g>
				<g>
					<path style="fill:#544C1E;" d="M117.152,268.514c0.707,0.552,1.529,0.855,2.435,0.715c0.799-0.123,1.685-0.575,1.872-1.439
						c0.075-0.347-0.223-0.699-0.591-0.591c-0.979,0.287-1.859,0.808-2.835,0.173C117.354,266.932,116.496,268.001,117.152,268.514
						L117.152,268.514z"/>
				</g>
				<g>
					<path style="fill:#544C1E;" d="M122.139,264.528c0.63,0.625,1.861,1.026,2.443,0.133c0.202-0.31,0.059-0.748-0.244-0.93
						c-0.418-0.25-0.896-0.088-1.305-0.362C122.329,262.895,121.552,263.946,122.139,264.528L122.139,264.528z"/>
				</g>
				<g>
					<path style="fill:#605822;" d="M77.999,357.658c3.844-2.937-1.127-8.285,2.733-10.977c0.362-0.252,0.291-1.005-0.254-0.939
						c-5.338,0.644-0.627,8.645-3.018,11.217C77.134,357.309,77.58,357.978,77.999,357.658L77.999,357.658z"/>
				</g>
				<g>
					<path style="fill:#605822;" d="M82.03,351.444c1.529-4.336,3.947-6.923,3.978-11.69c0.036-5.677,1.156-10.373,2.616-15.802
						c0.149-0.555-0.622-0.876-0.921-0.388c-2.14,3.497-2.91,7.837-3.051,11.908c-0.095,2.742,0.46,5.626-0.244,8.323
						c-0.677,2.597-2.35,4.852-3.102,7.451C81.171,351.713,81.871,351.894,82.03,351.444L82.03,351.444z"/>
				</g>
				<g>
					<path style="fill:#605822;" d="M87.575,312.431c-0.635,0.832-0.621,2.07-0.02,2.918c0.681,0.961,2.063,1.245,3.096,0.694
						c0.472-0.252,0.918-0.829,0.6-1.372c-0.334-0.57-0.934-0.27-1.421-0.192c-0.801,0.128-1.529-0.596-1.142-1.398
						C89.056,312.319,88.072,311.779,87.575,312.431L87.575,312.431z"/>
				</g>
				<g>
					<path style="fill:#605822;" d="M88.875,307.331c-0.173,1.4,0.646,4.129,2.477,3.889c0.34-0.045,0.713-0.344,0.565-0.742
						c-0.222-0.598-0.649-0.931-1.005-1.444c-0.357-0.515-0.51-1.081-0.489-1.703C90.455,306.311,88.993,306.372,88.875,307.331
						L88.875,307.331z"/>
				</g>
				<g>
					<path style="fill:#605822;" d="M91.131,301.749c-0.935-3.918,3.462-5.848,4.732-8.998c0.783-1.942,0.519-4.253-0.178-6.171
						c-0.136-0.376-0.753-0.349-0.737,0.1c0.07,1.894,0.517,3.686-0.165,5.516c-0.72,1.932-2.473,2.943-3.719,4.479
						c-1.298,1.599-1.967,3.452-1.2,5.424C90.166,302.871,91.331,302.588,91.131,301.749L91.131,301.749z"/>
				</g>
				<g>
					<path style="fill:#605822;" d="M95,282.346c0.875,0,0.876-1.359,0-1.359C94.125,280.987,94.124,282.346,95,282.346L95,282.346z
						"/>
				</g>
				<g>
					<path style="fill:#605822;" d="M92.333,276.621c0.799,0,0.801-1.242,0-1.242C91.534,275.379,91.533,276.621,92.333,276.621
						L92.333,276.621z"/>
				</g>
				<g>
					<path style="fill:#605822;" d="M86.161,268.839c0.344,0.297,0.617,0.473,1.044,0.624c0.335,0.119,0.71-0.256,0.591-0.591
						c-0.151-0.428-0.327-0.701-0.625-1.044C86.569,267.129,85.462,268.235,86.161,268.839L86.161,268.839z"/>
				</g>
				<g>
					<path style="fill:#605822;" d="M84.074,263.332c0.083,0.74,0.396,1.226,1.121,1.464c0.464,0.152,0.687-0.429,0.433-0.744
						c-0.182-0.227-0.315-0.597-0.358-0.881C85.17,262.498,83.997,262.649,84.074,263.332L84.074,263.332z"/>
				</g>
				<g>
					<path style="fill:#605822;" d="M83.333,258.06c0.935,0,0.937-1.453,0-1.453C82.398,256.607,82.397,258.06,83.333,258.06
						L83.333,258.06z"/>
				</g>
				<g>
					<path style="fill:#605822;" d="M79.772,336.845c-0.44,1.509,0.23,4.806,2.374,4.472c0.321-0.05,0.549-0.484,0.442-0.779
						c-0.223-0.616-0.792-0.922-1.153-1.445c-0.383-0.555-0.551-1.244-0.443-1.912C81.12,336.394,80.005,336.045,79.772,336.845
						L79.772,336.845z"/>
				</g>
				<g>
					<path style="fill:#605822;" d="M82.114,332.333c-0.577,1.156-0.521,3.26,1.096,3.46c0.466,0.057,0.868-0.444,0.867-0.867
						c-0.001-0.49-0.314-0.84-0.532-1.256c-0.167-0.319-0.189-0.635-0.143-0.988C83.491,331.997,82.406,331.747,82.114,332.333
						L82.114,332.333z"/>
				</g>
				<g>
					<path style="fill:#605822;" d="M74.55,348.736c0.352,2.903,0.714,5.802,0.577,8.732c-0.095,2.021-0.723,4.203,0.493,5.97
						c0.413,0.599,1.245,0.215,1.135-0.479c-0.769-4.863,0.377-9.527-1.192-14.361C75.394,348.078,74.476,348.129,74.55,348.736
						L74.55,348.736z"/>
				</g>
			</g>
			<g>
				
					<linearGradient id="SVGID_00000014599352117913373760000006059076243534256061_" gradientUnits="userSpaceOnUse" x1="425.9387" y1="418.9924" x2="421.0028" y2="515.1561">
					<stop  offset="0" style="stop-color:#A2D100"/>
					<stop  offset="0.9964" style="stop-color:#437200"/>
				</linearGradient>
				<path style="fill:url(#SVGID_00000014599352117913373760000006059076243534256061_);" d="M0,374.56
					c0,0,105.133-15.481,205.865-11.478c100.732,4.003,185.849,64,296.283,47.5S782.934,431.571,850,465.346V500H0V374.56z"/>
				
					<linearGradient id="SVGID_00000076601567643712066380000000058606371735428482_" gradientUnits="userSpaceOnUse" x1="427.8184" y1="400.7181" x2="422.0254" y2="513.5813">
					<stop  offset="0" style="stop-color:#A2D100"/>
					<stop  offset="0.9964" style="stop-color:#437200"/>
				</linearGradient>
				<path style="fill:url(#SVGID_00000076601567643712066380000000058606371735428482_);" d="M0,411.255
					c0,0,89.516-21.677,190.167-16.755c132.923,6.5,171.891,85.497,303.166,55.789c136.297-30.845,289.602,1.299,356.668,25.194V500
					H0V411.255z"/>
			</g>
			<path style="fill:#FFFFFF;" d="M563.509,41.426c-0.984,0-1.933,0.142-2.84,0.386c-0.844-4.896-5.101-8.625-10.238-8.625
				c-0.535,0-1.056,0.053-1.569,0.131c-0.252-3.981-3.552-7.134-7.596-7.134c-2.903,0-5.425,1.623-6.712,4.011
				c-1.457-0.463-3.006-0.716-4.616-0.716c-6.141,0-11.421,3.64-13.834,8.874c-0.971-0.409-2.038-0.636-3.157-0.636
				c-3.368,0-6.258,2.047-7.494,4.965c-0.74-0.149-1.505-0.228-2.289-0.228c-6.3,0-11.412,5.054-11.523,11.328h15.875h3.633h3.538
				h0.057h2.94h7.132h0.358h15.529h1.488h0.283h5.895h4.122h0.208h7.459h14.16c0.063-0.473,0.106-0.952,0.106-1.442
				C574.424,46.313,569.537,41.426,563.509,41.426z"/>
			<path style="fill:#FFFFFF;" d="M197.609,72.447c-1.241,0-2.439,0.173-3.587,0.469c-2.055-5.834-7.6-10.022-14.136-10.022
				c-0.962,0-1.899,0.099-2.811,0.272c-0.769-7.656-7.231-13.633-15.089-13.633c-5.846,0-10.912,3.313-13.443,8.16
				c-2.41-0.684-4.951-1.057-7.581-1.057c-0.636,0-1.264,0.029-1.89,0.071c-1.782-8.051-8.952-14.077-17.539-14.077
				c-9.927,0-17.975,8.048-17.975,17.975c0,1.479,0.198,2.908,0.535,4.283c-0.942-0.119-1.9-0.188-2.874-0.188
				c-7.878,0-14.807,4.03-18.857,10.138c-1.204-0.315-2.465-0.489-3.768-0.489c-7.305,0-13.369,5.269-14.627,12.212h14.646H93.22
				h20.091h10.512h38.161h5.671h0.954h14.508h0.114h8.882h19.871C211.836,78.742,205.463,72.447,197.609,72.447z"/>
			<path style="fill:#FFFFFF;" d="M740.741,68.146c-1.013,0-1.991,0.142-2.929,0.383c-1.678-4.762-6.204-8.182-11.541-8.182
				c-0.785,0-1.55,0.081-2.294,0.222c-0.628-6.25-5.903-11.129-12.319-11.129c-4.773,0-8.908,2.705-10.975,6.661
				c-1.968-0.558-4.042-0.863-6.189-0.863c-6.286,0-11.972,2.562-16.075,6.696c-3.57-2.422-7.87-3.846-12.51-3.846
				c-8.562,0-15.976,4.83-19.723,11.903c-0.841-0.185-1.712-0.293-2.609-0.293c-5.964,0-10.914,4.302-11.942,9.97h11.957h11.926
				h16.403h16.304h23.433h4.63h0.779h11.844h0.093h7.251h16.223C752.356,73.286,747.153,68.146,740.741,68.146z"/>
			<g>
				<g>
					<g>
						<path style="fill:#4C7C01;" d="M454.824,509.999c3.586-17.074,9.219-33.273,15.816-49.39c0.316-0.771-0.98-1.315-1.349-0.569
							c-7.697,15.57-12.765,32.501-16.094,49.51C452.99,510.608,454.6,511.066,454.824,509.999L454.824,509.999z"/>
					</g>
					<g>
						<path style="fill:#3D6800;" d="M455.733,510.72c8.883-19.14,19.009-37.601,28.347-56.505c0.451-0.913-0.837-1.689-1.376-0.804
							c-10.939,17.935-19.828,37.322-28.407,56.47C453.864,510.845,455.28,511.696,455.733,510.72L455.733,510.72z"/>
					</g>
					<g>
						<path style="fill:#4C7C01;" d="M458.106,511.564c8.397-14.533,18.437-27.665,28.945-40.713
							c0.545-0.677-0.349-1.635-0.978-0.978c-11.594,12.118-21.075,26.346-29.303,40.91
							C456.28,511.651,457.608,512.427,458.106,511.564L458.106,511.564z"/>
					</g>
					<g>
						<path style="fill:#3D6800;" d="M461.972,509.492c7.059-12.255,16.273-21.63,26.65-31.05c0.657-0.597-0.198-1.713-0.952-1.233
							c-11.644,7.422-20.84,19.295-27.236,31.384C459.899,509.604,461.397,510.49,461.972,509.492L461.972,509.492z"/>
					</g>
					<g>
						<path style="fill:#3D6800;" d="M469.745,505.406c2.652-6.858,6.611-12.691,10.975-18.552c0.634-0.852-0.714-1.809-1.436-1.108
							c-5.414,5.262-9.069,12.05-11.709,19.062C467.064,506.169,469.229,506.741,469.745,505.406L469.745,505.406z"/>
					</g>
					<g>
						<path style="fill:#4C7C01;" d="M453.428,506.883c-1.843-9.495-3.144-19.413-5.888-28.69c-0.258-0.871-1.774-0.755-1.657,0.224
							c1.156,9.701,3.867,19.366,5.941,28.909C452.052,508.377,453.631,507.927,453.428,506.883L453.428,506.883z"/>
					</g>
					<g>
						<path style="fill:#3D6800;" d="M448.602,507.402c-3.837-6.313-6.956-12.961-10.601-19.367
							c-0.407-0.715-1.693-0.23-1.371,0.578c2.736,6.856,6.77,13.307,10.697,19.535
							C447.832,508.949,449.098,508.219,448.602,507.402L448.602,507.402z"/>
					</g>
				</g>
				<g>
					<g>
						<path style="fill:#3D6800;" d="M552.039,515.871c5.333-15.221,11.786-29.92,18.322-44.652c0.263-0.593-0.578-1.12-0.891-0.52
							c-7.466,14.355-13.325,29.567-18.539,44.867C550.692,516.268,551.796,516.564,552.039,515.871L552.039,515.871z"/>
					</g>
					<g>
						<path style="fill:#4C7C01;" d="M550.388,521.209c11.104-16.005,22.508-31.8,33.549-47.848
							c0.469-0.681-0.615-1.277-1.093-0.639c-11.675,15.596-22.66,31.701-33.59,47.824
							C548.778,521.249,549.91,521.897,550.388,521.209L550.388,521.209z"/>
					</g>
					<g>
						<path style="fill:#3D6800;" d="M555.835,519.962c8.637-14.701,19.591-27.48,32.134-38.979c0.755-0.692-0.346-1.749-1.11-1.11
							c-13.122,10.965-23.856,24.512-32.36,39.309C554.003,520.046,555.331,520.821,555.835,519.962L555.835,519.962z"/>
					</g>
					<g>
						<path style="fill:#4C7C01;" d="M550.335,520.313c1.965-23.018,2.942-47.393-1.102-70.248
							c-0.167-0.941-1.686-0.716-1.657,0.224c0.356,11.673,1.591,23.301,1.883,34.984c0.292,11.674,0.163,23.376-0.39,35.04
							C549.03,521.134,550.266,521.114,550.335,520.313L550.335,520.313z"/>
					</g>
					<g>
						<path style="fill:#3D6800;" d="M534.009,458.515c6.74,18.98,10.537,38.481,12.596,58.485c0.094,0.911,1.501,0.949,1.453,0
							c-1.025-20.138-5.726-39.982-12.738-58.847C535.019,457.343,533.714,457.684,534.009,458.515L534.009,458.515z"/>
					</g>
					<g>
						<path style="fill:#4C7C01;" d="M525.56,479.249c7.992,12.945,13.377,26.58,19.016,40.631c0.303,0.754,1.434,0.486,1.243-0.343
							c-3.354-14.563-10.888-28.601-19.105-40.963C526.241,477.864,525.104,478.51,525.56,479.249L525.56,479.249z"/>
					</g>
				</g>
			</g>
			<g>
				<g>
					<g>
						<path style="fill:#729900;" d="M373.342,412.235c-3.863-7.829-6.779-16.078-10.637-23.891
							c-0.384-0.778-1.579-0.227-1.371,0.578c2.187,8.452,6.376,16.555,10.307,24.307
							C372.217,414.361,373.9,413.366,373.342,412.235L373.342,412.235z"/>
					</g>
					<g>
						<path style="fill:#8FB506;" d="M374.949,415.853c-2.289-10.945-2.752-21.886-4.298-32.887c-0.142-1.01-1.612-0.669-1.68,0.227
							c-0.826,10.773,1.833,22.696,4.758,32.996C373.952,416.978,375.115,416.646,374.949,415.853L374.949,415.853z"/>
					</g>
					<g>
						<path style="fill:#729900;" d="M375.163,415.493c-0.109-10.483,1.62-20.779,1.796-31.193c0.011-0.677-0.993-0.807-1.174-0.159
							c-2.751,9.872-2.373,21.19-2.004,31.352C373.813,416.379,375.173,416.386,375.163,415.493L375.163,415.493z"/>
					</g>
					<g>
						<path style="fill:#8FB506;" d="M377.672,413.828c1.014-8.151,3.929-15.016,6.798-22.611c0.347-0.917-1.031-1.397-1.521-0.641
							c-4.372,6.75-6.042,15.351-6.707,23.252C376.164,414.757,377.561,414.72,377.672,413.828L377.672,413.828z"/>
					</g>
				</g>
				<g>
					<g>
						<path style="fill:#8FB506;" d="M218.968,374.116c-5.732-7.475-11.546-15.252-18.535-21.607
							c-0.454-0.413-1.316,0.15-0.902,0.696c5.727,7.546,12.268,14.465,18.111,21.934
							C218.227,375.885,219.552,374.877,218.968,374.116L218.968,374.116z"/>
					</g>
					<g>
						<path style="fill:#8FB506;" d="M220.143,372.049c-3.069-8.17-6.43-17.512-12.126-24.226c-0.402-0.473-1.323,0.033-1.077,0.627
							c3.39,8.209,8.412,15.695,11.78,23.991C219.069,373.303,220.481,372.949,220.143,372.049L220.143,372.049z"/>
					</g>
					<g>
						<path style="fill:#729900;" d="M221.174,375.674c-0.912-7.599-1.963-15.549-3.894-22.953
							c-0.182-0.697-1.353-0.579-1.289,0.174c0.649,7.63,2.29,15.479,3.963,22.943C220.104,376.508,221.258,376.377,221.174,375.674
							L221.174,375.674z"/>
					</g>
					<g>
						<path style="fill:#8FB506;" d="M222.81,375.676c-0.381-9.169,1.162-18.25,0.937-27.335c-0.015-0.613-0.916-0.758-1.082-0.146
							c-2.31,8.518-1.466,18.767-0.886,27.481C221.822,376.332,222.838,376.344,222.81,375.676L222.81,375.676z"/>
					</g>
					<g>
						<path style="fill:#729900;" d="M225.076,378.113c2.363-8.797,6.182-16.697,9.61-25.08c0.276-0.675-0.774-1.045-1.135-0.479
							c-4.804,7.527-7.466,16.656-9.515,25.272C223.876,378.501,224.895,378.786,225.076,378.113L225.076,378.113z"/>
					</g>
					<g>
						<path style="fill:#8FB506;" d="M227.469,377.01c0.712-2.201,1.752-4.242,3.188-6.06c1.349-1.708,3.096-2.901,4.582-4.456
							c0.45-0.471,0.004-1.488-0.696-1.195c-4.336,1.816-7.189,7.037-8.407,11.343C225.892,377.503,227.197,377.853,227.469,377.01
							L227.469,377.01z"/>
					</g>
					<g>
						<path style="fill:#729900;" d="M206.822,368.886c3.225,2.721,6.381,5.665,9.925,7.97c0.682,0.444,1.397-0.541,0.852-1.104
							c-2.894-2.987-6.331-5.474-9.567-8.076C207.187,366.998,205.972,368.17,206.822,368.886L206.822,368.886z"/>
					</g>
				</g>
				<g>
					<g>
						<path style="fill:#729900;" d="M672.834,431.824c5.643-11.831,14.327-21.591,22.626-31.598c0.389-0.469-0.262-1.146-0.68-0.68
							c-8.742,9.784-17.234,19.773-22.797,31.78C671.721,431.897,672.561,432.398,672.834,431.824L672.834,431.824z"/>
					</g>
					<g>
						<path style="fill:#8FB506;" d="M676.048,429.733c6.755-10.38,15.24-18.946,24.897-26.631c0.569-0.453-0.179-1.426-0.781-1.012
							c-10.27,7.064-18.641,16.463-25.31,26.945C674.374,429.789,675.564,430.476,676.048,429.733L676.048,429.733z"/>
					</g>
					<g>
						<path style="fill:#729900;" d="M676.3,431.819c7.73-8.69,16.694-15.696,26.647-21.676c0.767-0.461,0.091-1.599-0.698-1.194
							c-10.408,5.333-19.446,12.927-26.993,21.825C674.648,431.492,675.664,432.535,676.3,431.819L676.3,431.819z"/>
					</g>
					<g>
						<path style="fill:#8FB506;" d="M673.089,431.576c1.202-9.91,4.878-19.251,7.448-28.844c0.212-0.792-0.965-1.105-1.22-0.336
							c-3.182,9.572-6.817,19.033-7.587,29.18C671.663,432.461,672.986,432.424,673.089,431.576L673.089,431.576z"/>
					</g>
					<g>
						<path style="fill:#729900;" d="M665.555,398.975c1.128,5.653,1.959,11.345,2.408,17.094c0.403,5.154,0.09,10.383,0.686,15.506
							c0.064,0.555,0.975,0.817,1.082,0.146c1.696-10.611-0.719-22.684-3.046-33.058
							C666.519,397.925,665.408,398.241,665.555,398.975L665.555,398.975z"/>
					</g>
					<g>
						<path style="fill:#8FB506;" d="M654.737,397.689c4.43,10.316,7.292,21,9.741,31.931c0.153,0.682,1.333,0.548,1.243-0.168
							c-1.423-11.316-4.987-22.183-9.547-32.603C655.745,395.868,654.32,396.717,654.737,397.689L654.737,397.689z"/>
					</g>
					<g>
						<path style="fill:#729900;" d="M641.134,396.567c6.767,10.351,14.017,20.395,19.648,31.439
							c0.462,0.906,1.715,0.11,1.336-0.781c-4.839-11.352-12.731-21.318-19.749-31.38
							C641.849,395.1,640.625,395.788,641.134,396.567L641.134,396.567z"/>
					</g>
					<g>
						<path style="fill:#8FB506;" d="M637.137,401.146c5.467,8.05,12.201,15.151,17.937,22.993c0.715,0.977,2.35,0.083,1.659-0.97
							c-5.335-8.138-12.167-15.155-17.775-23.088C638.184,398.987,636.368,400.014,637.137,401.146L637.137,401.146z"/>
					</g>
				</g>
				<g>
					<g>
						<path style="fill:#729900;" d="M509.382,421.524c4.461-12.482,12.649-22.936,18.293-34.824
							c0.332-0.699-0.674-1.314-1.052-0.615c-6.281,11.581-13.925,22.636-18.235,35.165
							C508.171,421.88,509.161,422.144,509.382,421.524L509.382,421.524z"/>
					</g>
					<g>
						<path style="fill:#729900;" d="M511.628,422.861c5.675-9.226,11.63-18.27,17.323-27.479c0.457-0.739-0.676-1.667-1.233-0.952
							c-6.627,8.513-12.395,18.124-17.304,27.721C510.003,422.954,511.151,423.637,511.628,422.861L511.628,422.861z"/>
					</g>
					<g>
						<path style="fill:#8FB506;" d="M515.156,422.91c5.472-8.512,11.936-16.078,18.23-23.961c0.562-0.703-0.33-1.664-1.011-1.011
							c-7.288,6.994-13.216,15.666-18.535,24.203C513.32,422.977,514.628,423.732,515.156,422.91L515.156,422.91z"/>
					</g>
					<g>
						<path style="fill:#8FB506;" d="M517.913,423.647c8.556-10.577,19.246-18.547,31.355-24.655
							c0.688-0.347,0.201-1.557-0.533-1.264c-12.874,5.152-23.665,13.991-32.073,24.953
							C516.115,423.392,517.344,424.35,517.913,423.647L517.913,423.647z"/>
					</g>
					<g>
						<path style="fill:#8FB506;" d="M505.721,424.363c2.051-7.534,4.159-15.253,5.064-23.025c0.086-0.74-1.117-0.883-1.289-0.174
							c-1.839,7.582-3.122,15.277-5.063,22.844C504.219,424.841,505.495,425.193,505.721,424.363L505.721,424.363z"/>
					</g>
					<g>
						<path style="fill:#729900;" d="M496.449,396.713c0.081,8.187-0.288,16.53,0.647,24.673c0.092,0.799,1.207,0.827,1.266,0
							c0.579-8.174-0.158-16.492-0.436-24.673C497.894,395.767,496.44,395.759,496.449,396.713L496.449,396.713z"/>
					</g>
					<g>
						<path style="fill:#8FB506;" d="M481.436,396.688c4.107,7.406,7.178,15.114,10.482,22.888c0.469,1.104,2.21,0.308,1.906-0.804
							c-2.233-8.163-6.288-15.893-10.728-23.054C482.445,394.668,480.835,395.603,481.436,396.688L481.436,396.688z"/>
					</g>
					<g>
						<path style="fill:#729900;" d="M474.71,399.463c3.357,5.804,6.668,11.6,10.449,17.143c0.558,0.818,1.801,0.109,1.336-0.781
							c-3.11-5.943-6.665-11.592-10.206-17.285C475.669,397.544,474.118,398.44,474.71,399.463L474.71,399.463z"/>
					</g>
				</g>
			</g>
			<g>
				
					<radialGradient id="SVGID_00000145779018085607426000000005641739785274101124_" cx="534.2911" cy="127.9537" r="57.9456" gradientUnits="userSpaceOnUse">
					<stop  offset="0" style="stop-color:#FFFFFF;stop-opacity:0"/>
					<stop  offset="0.9589" style="stop-color:#FFFFFF;stop-opacity:0.1918"/>
					<stop  offset="1" style="stop-color:#FFFFFF;stop-opacity:0.2"/>
				</radialGradient>
				<circle style="fill:url(#SVGID_00000145779018085607426000000005641739785274101124_);" cx="534.291" cy="127.954" r="57.946"/>
				
					<radialGradient id="SVGID_00000139262726657572977730000005261315408290499241_" cx="534.2911" cy="127.9537" r="28.3313" gradientUnits="userSpaceOnUse">
					<stop  offset="0" style="stop-color:#FFFFFF;stop-opacity:0"/>
					<stop  offset="0.9589" style="stop-color:#FFFFFF;stop-opacity:0.1918"/>
					<stop  offset="1" style="stop-color:#FFFFFF;stop-opacity:0.2"/>
				</radialGradient>
				<circle style="fill:url(#SVGID_00000139262726657572977730000005261315408290499241_);" cx="534.291" cy="127.954" r="28.331"/>
				<circle style="fill:#FFF794;" cx="534.291" cy="127.954" r="15.49"/>
			</g>
			<g>
				<g>
					<path style="fill:#729900;" d="M175.345,471.032c17.736-14.574,32.66-32.557,43.716-52.675
						c0.58,14.844,1.046,30.309-5.059,43.852c-7.916,17.563-25.253,28.581-41.236,39.335c-15.805,10.635-31.589,23.095-37.181,42.1
						c-1.036-11.992-3.139-24.296,2.717-35.334C146.868,492.165,161.605,482.323,175.345,471.032z"/>
					<g>
						<path style="fill:#3D6800;" d="M137.148,533.768c3.103-26.036,26.181-39.688,46.049-53.199
							c8.596-5.845,15.956-13.242,21.72-21.92c4.929-7.422,10.341-17.905,10.809-26.968c0.024-0.473-0.773-0.596-0.84-0.114
							c-1.51,10.781-6.939,21.743-13.478,30.36c-7.198,9.484-15.87,15.846-25.567,22.483c-17.766,12.16-37.267,26.106-39.114,49.359
							C136.705,534.043,137.117,534.032,137.148,533.768L137.148,533.768z"/>
					</g>
				</g>
				<g>
					<path style="fill:#0C844B;" d="M89.299,498.794c13.73-29.948,23.888-36.888,41.459-57.5c0.308,5.26,2.049,9.266,3.598,14.4
						c-1.549-5.134,0.797-13.691,2.099-19.61c0.99-4.499,35.873-25.313,50.898-33.039c-18.332,30.022-26.701,55.334-46.063,86.917
						c-4.787-1.908-9.193-4.765-12.887-8.357c0.573,4.725,2.028,9.343,4.268,13.543c-16.07,10.563-41.85,40.849-48.532,65.142
						C75.508,538.593,79.388,520.411,89.299,498.794z"/>
					<g>
						<path style="fill:#0A6638;" d="M84.737,551.949c1.609-28.669,19.354-50.441,37.335-71.392
							c18.436-21.481,36.821-43.093,54.299-65.367c0.276-0.352-0.188-0.853-0.505-0.505c-11.486,12.568-21.665,26.423-32.427,39.608
							c-8.128,9.958-16.657,19.563-24.933,29.396c-16.924,20.108-32.839,41.087-34.202,68.26
							C84.289,552.228,84.721,552.227,84.737,551.949L84.737,551.949z"/>
					</g>
				</g>
				<g>
					<path style="fill:#3D6800;" d="M49.068,470.284c5.629-10.113,19.384-28.398,31.325-36.656
						c1.546,5.309,4.507,10.199,8.496,14.028c-1.301-5.874-1.227-12.047,0.213-17.888c1.926,3.576,3.852,7.153,5.778,10.729
						c1.735-4.162-1.282-10.858,1.023-14.734c1.286-2.162,34.62-12.601,49.249-14.551c-15.732,14.89-31.818,30.257-41.086,49.835
						c-2.456-1.368-4.911-2.737-7.367-4.105c1.21,2.645,1.921,5.517,2.084,8.421c-3.389-0.891-6.913-1.269-10.415-1.115
						c0.984,3.006,2.399,5.87,4.188,8.478c-9.739,3.084-47.326,42.26-54.1,65.523C39.332,535.247,23.311,516.558,49.068,470.284z"/>
					<g>
						<path style="fill:#729900;" d="M38.139,530.346c6.129-24.244,16.487-46.622,34.529-64.377
							c8.88-8.739,19.549-15.699,28.952-23.891c9.432-8.217,19.667-15.269,29.628-22.802c0.364-0.275,0.026-0.897-0.367-0.627
							c-9.875,6.764-19.553,13.918-28.617,21.744c-10.304,8.897-21.956,16.634-31.473,26.379
							c-17.226,17.637-27.458,39.683-32.98,63.483C37.762,530.469,38.085,530.559,38.139,530.346L38.139,530.346z"/>
					</g>
				</g>
				<g>
					<path style="fill:#0C844B;" d="M8.52,462.382c3.81-6.113,8.365-11.825,13.948-16.376c7.373-6.009,16.259-9.792,24.535-14.48
						c15.379-8.711,28.859-20.753,39.244-35.055c-2.967,16.079-7.309,24.295-12.495,36.359c-3.179,7.393-9.552,14.814-15.266,20.482
						c-5.676,5.63-13.223,8.868-20.051,13.028c-20.789,12.664-35.359,35.059-38.511,59.197c0.434-3.321-2.143-9.403-2.509-13.157
						c-0.566-5.82-1.15-11.368-0.542-17.229C-1.922,483.525,2.357,472.269,8.52,462.382z"/>
					<g>
						<path style="fill:#0A6638;" d="M1.856,510.023c-0.883-12.104,2.326-23.686,8.779-33.903
							c6.837-10.825,16.342-18.121,27.112-24.688c17.039-10.39,33.992-23.497,41.899-42.428c0.128-0.306-0.387-0.52-0.535-0.226
							c-5.623,11.167-12.804,20.27-22.437,28.215c-8.464,6.981-17.691,12.285-26.729,18.418
							C11.945,467.626-0.377,487.829,1.47,510.023C1.49,510.269,1.875,510.273,1.856,510.023L1.856,510.023z"/>
					</g>
				</g>
				<g>
					<path style="fill:#729900;" d="M25.682,396.941c13.215-9.353,29.613-18.269,40.057-27.192
						c-5.014,14.293-11.486,23.28-22.851,38.58c-2.413,3.249-8.903,9.72-11.551,12.78C2.355,454.6-10.676,471.59-15.816,506.117
						c0.546-3.665-3.032-8.956-2.595-27.706c0.241-10.341,3.287-20.839,6.778-30.543C-4.408,427.785,8.137,409.358,25.682,396.941z"
						/>
					<g>
						<path style="fill:#3D6800;" d="M-15.555,488.323c4.135-22.217,13.132-42.833,26.21-61.233
							c5.957-8.382,12.323-15.925,20.182-22.566c8.905-7.524,18.422-14.551,25.982-23.506c0.249-0.295-0.154-0.717-0.431-0.431
							c-8.536,8.813-17.937,16.392-27.223,24.373c-7.43,6.386-13.462,13.805-19.107,21.782
							c-13.068,18.47-22.105,39.147-26.055,61.46C-16.047,488.488-15.609,488.613-15.555,488.323L-15.555,488.323z"/>
					</g>
				</g>
			</g>
			<g>
				<path style="fill:#0C844B;" d="M857,373.812c-1.269-2.772-4.736-2.332-9.14-2.822c-5.4-0.59-11.19,4.28-10.2,9.61
					c-4.06-3.35-10.5-2.07-14.45,1.42c-3.95,3.49-6.01,8.58-7.95,13.48c-6.12-4.82-16.85-0.43-17.84,7.3
					c-2.78-3.67-7.92-5.35-12.33-4.04c-4.41,1.31-7.8,5.53-8.12,10.13c-2.21-4.33-8.73-4.98-12.6-2.06
					c-3.88,2.93-5.28,8.24-4.85,13.07c-4.73-5.35-13.03-7.15-19.56-4.26c-6.53,2.9-10.76,10.27-9.97,17.36
					c-6.11-2.88-13.84-1.93-19.08,2.34c-5.24,4.26-7.73,11.64-6.14,18.21c-7.44-3.42-17.35,3.47-16.72,11.63
					c-2.93-2.36-7.44-2.52-10.53-0.36c-3.16,2.22-4.16,6.25-3.51,9.87c-10.34,2.04-23.83,19.79-18.76,30.47l43.49,0.25L857,506.328
					V373.812z"/>
				<path style="fill:#0D723F;" d="M857,394.592c-9.483,1.039-18.524,6.079-24.22,13.758c-2.1,2.82-3.59,7-1.95,9.79
					c-2.23-1.82-6.32-1.09-8.2,1.37c-2.21,2.91-2.03,6.98-1.18,10.53c-3.31-5.15-11.1-3.99-16.8-1.76c-3.32,1.3-6.69,2.83-9.02,5.52
					c-2.33,2.7-3.32,6.86-1.42,9.87c-4.34-3.48-10.72-4.18-15.71-1.71c-4.98,2.46-8.3,7.96-8.16,13.52
					c-7.02-2.86-15.45-1.94-21.69,2.38c-6.23,4.31-10.06,11.88-9.86,19.46c-10.56-3.29-22.92-1.84-31.36,5.32
					c-6.47,5.49-9.93,14.53-8.69,22.77L857,506.328V394.592z"/>
				<g>
					<path style="fill:#0D723F;" d="M677.734,492.772c1.155-2.194,1.385-4.39,3.473-6.073c0.965-0.778,2.117-1.366,3.331-1.626
						c1.122-0.24,2.3,0.094,3.3-0.509c0.464-0.28,0.512-0.882,0.164-1.27c-1.925-2.146-6.439,0.245-8.151,1.667
						c-2.033,1.689-4.394,5.095-3.068,7.811C676.963,493.14,677.55,493.123,677.734,492.772L677.734,492.772z"/>
				</g>
				<g>
					<path style="fill:#0D723F;" d="M703.796,472.048c0.125-5.601,3.032-8.713,8.336-9.919c0.837-0.19,1.459,0.013,2.147-0.701
						c1.493-1.551,0.668-3.927,2.393-5.85c2.768-3.087,7.508-3.294,11.307-3.763c1.32-0.163,1.411-2.167,0-2.133
						c-4.069,0.098-8.453,0.522-11.723,3.205c-0.997,0.818-1.854,1.776-2.478,2.906c-0.54,0.977-0.693,3.26-1.347,3.916
						c-0.658,0.659-2.478,0.571-3.43,0.928c-1.74,0.652-3.3,1.815-4.468,3.256c-1.966,2.426-2.775,5.311-1.979,8.324
						C702.737,472.915,703.78,472.758,703.796,472.048L703.796,472.048z"/>
				</g>
				<g>
					<path style="fill:#0D723F;" d="M747.666,450.566c-0.842-8.91,11.11-7.807,16.137-11.204c0.733-0.495,0.265-1.544-0.587-1.392
						c-6.269,1.113-19.29,3.56-16.931,12.783C746.476,451.5,747.742,451.371,747.666,450.566L747.666,450.566z"/>
				</g>
				<g>
					<path style="fill:#0D723F;" d="M775.284,427.483c0.346-2.063,0.637-5.422,2.268-6.806c1.643-1.394,3.695-0.323,5.233-0.616
						c1.236-0.235,1.631-0.422,2.566-1.275c2.018-1.839,3.054-4.136,5.57-5.584c3.336-1.919,6.873-2.094,10.612-2.394
						c0.818-0.066,0.953-1.116,0.19-1.404c-3.081-1.163-6.208-0.797-9.263,0.361c-3.656,1.387-5.252,3.7-8.032,6.132
						c-2.284,1.999-4.882,0.682-7.317,2.478c-2.797,2.064-3.147,5.727-3.117,8.932C774.002,428.021,775.158,428.236,775.284,427.483
						L775.284,427.483z"/>
				</g>
				<g>
					<path style="fill:#0D723F;" d="M820.754,411.711c0.451-2.242,0.752-4.25,2.325-6.044c1.48-1.688,3.487-2.692,5.641-3.22
						c0.864-0.212,0.653-1.496-0.206-1.519c-4.992-0.135-10.643,5.6-9.048,10.784C819.648,412.303,820.618,412.389,820.754,411.711
						L820.754,411.711z"/>
				</g>
				<g>
					<path style="fill:#0C844B;" d="M764.609,488.678c0.878-3.298,2.686-6.053,5.916-7.418c1.317-0.557,2.975-0.309,4.142-1.064
						c1.919-1.24,3.205-3.406,5.359-4.589c2.949-1.619,6.151-2.007,9.449-2.158c0.773-0.035,1.041-1.286,0.193-1.427
						c-3.141-0.524-6.136-0.129-9.07,1.155c-3.125,1.368-4.97,4.127-7.895,5.598c-2.321,1.167-4.412,1.299-6.375,3.321
						c-1.759,1.812-2.691,3.94-2.986,6.41C763.256,489.239,764.427,489.364,764.609,488.678L764.609,488.678z"/>
				</g>
				<g>
					<path style="fill:#0C844B;" d="M802.582,482.493c-0.228-3.096,1.645-5.392,4.095-7.073c0.798-0.548,1.942-0.819,2.591-1.552
						c0.894-1.011,0.894-2.168,1.265-3.429c1.818-6.175,7.142-9.979,13.199-11.382c0.879-0.204,0.702-1.637-0.215-1.588
						c-6.173,0.327-11.496,4.239-14.038,9.866c-0.612,1.354-0.674,2.982-1.283,4.278c-0.75,1.596-2.345,2.205-3.629,3.364
						c-2.264,2.042-3.511,4.455-3.11,7.517C801.548,483.189,802.636,483.23,802.582,482.493L802.582,482.493z"/>
				</g>
				<g>
					<path style="fill:#0C844B;" d="M832.428,442.678c-2.608-6.931,9.245-9.676,13.413-12.069c0.5-0.287,0.322-1.228-0.313-1.157
						c-5.876,0.657-17.832,6.007-14.406,13.777C831.445,443.963,832.714,443.437,832.428,442.678L832.428,442.678z"/>
				</g>
				<g>
					<path style="fill:#0C844B;" d="M825.342,487.237c-0.621-4.426,2.385-7.16,6.223-8.077c-0.518,0.124,3.424-0.126,4.033-0.466
						c1.165-0.651,1.489-0.725,1.912-2.154c0.351-1.188,0.013-2.776,0.201-4.035c0.359-2.403,1.197-4.415,2.711-6.294
						c3.05-3.783,6.786-4.42,11.3-5.154c0.91-0.148,0.879-1.634,0-1.808c-7.986-1.581-15.531,5.387-16.507,13.083
						c-0.144,1.138,0.277,2.682-0.394,3.608c-0.646,0.891-1.222,0.469-2.238,0.783c-2.254,0.697-4.287,0.955-6.164,2.564
						c-2.496,2.14-3.549,5.208-2.432,8.325C824.298,488.481,825.466,488.12,825.342,487.237L825.342,487.237z"/>
				</g>
				<g>
					<path style="fill:#0C844B;" d="M723.185,501.193c0.849-2.789,2.36-5.151,4.688-6.923c1.716-1.306,4.183-1.387,5.749-2.549
						c0.96-0.713,1.229-2.267,2.176-3.136c2.512-2.304,6.421-2.506,9.629-2.844c1.085-0.114,1.141-1.741,0-1.734
						c-3.016,0.018-6.118,0.121-8.843,1.587c-2.011,1.082-2.822,2.99-4.466,4.267c-1.974,1.534-4.496,2.052-6.385,3.926
						c-1.985,1.969-3.199,4.355-3.906,7.033C721.597,501.696,722.922,502.058,723.185,501.193L723.185,501.193z"/>
				</g>
				<g>
					<path style="fill:#0C844B;" d="M797.31,459.263c-0.647-2.545,0.037-5.397,2.111-7.114c1.779-1.473,3.7-1.325,5.832-1.639
						c0.654-0.096,0.75-1.135,0.185-1.414c-2.493-1.228-5.831,0.151-7.667,2.009c-2.239,2.265-2.779,5.56-1.726,8.505
						C796.325,460.398,797.52,460.093,797.31,459.263L797.31,459.263z"/>
				</g>
				<g>
					<path style="fill:#0C844B;" d="M779.636,499.052c-0.494-5.422,5.163-5.996,8.806-7.715c0.649-0.306,0.293-1.277-0.349-1.289
						c-4.622-0.085-11.558,3.621-9.7,9.172C778.606,499.857,779.704,499.802,779.636,499.052L779.636,499.052z"/>
				</g>
				<g>
					<path style="fill:#0C844B;" d="M760.672,475.066c-1.032-2.408,8.028-4.883,9.51-5.422c0.764-0.278,0.468-1.381-0.336-1.22
						c-2.55,0.509-12.634,2.906-10.266,7.281C759.977,476.439,760.984,475.793,760.672,475.066L760.672,475.066z"/>
				</g>
				<g>
					<path style="fill:#0D723F;" d="M741.374,438.616c-0.439-5.235,7.557-5.892,11.128-6.351c0.978-0.126,0.979-1.396,0-1.523
						c-3.876-0.503-15.132,2.145-12.285,8.188C740.475,439.478,741.425,439.219,741.374,438.616L741.374,438.616z"/>
				</g>
				<g>
					<path style="fill:#0D723F;" d="M841.067,392.51c0.236-3.55,2.7-5.999,6.13-6.625c0.852-0.156,0.575-1.369-0.193-1.427
						c-4.285-0.325-7.955,4.119-7.272,8.233C839.864,393.486,841.019,393.23,841.067,392.51L841.067,392.51z"/>
				</g>
				<g>
					<path style="fill:#0D723F;" d="M790.405,431.126c0.683-3.521,3.142-6.2,6.375-7.638c0.563-0.25,0.161-1.155-0.415-0.985
						c-3.801,1.119-6.422,4.46-6.999,8.337C789.265,431.51,790.271,431.818,790.405,431.126L790.405,431.126z"/>
				</g>
				<g>
					<path style="fill:#0D723F;" d="M725.728,469.186c0.618-4.07,3.461-6.603,7.05-8.246c0.511-0.234,0.276-1.167-0.296-1.092
						c-4.513,0.589-7.572,4.837-8.067,9.16C724.331,469.75,725.615,469.931,725.728,469.186L725.728,469.186z"/>
				</g>
			</g>
			<g>
				<path style="fill:#3D6800;" d="M259.876,459.589c9.876-25.012,21.722-49.246,35.392-72.403
					c-3.302,19.671-6.626,39.432-12.878,58.374c-8.991,27.237-21.647,49.026-30.77,76.219c9.421-13.438,8.696-14.96,17.129-28.795
					c19.193-31.49,46.41-57.417,73.195-82.765c-10.523,18.814-21.887,37.158-34.048,54.957
					c-8.012,11.726-16.399,23.252-26.135,33.59c-8.132,8.634-17.351,16.646-22.589,27.287
					c39.631-31.407,81.505-59.984,125.197-85.441c-17.233,24.182-40.954,42.966-65.519,59.646
					c-24.566,16.681-50.169,29.784-78.822,48.895c0.893-0.704,2.997-14.085,3.674-21.37
					C245.942,503.685,254.076,474.277,259.876,459.589z"/>
				<g>
					<path style="fill:#3D6800;" d="M251.287,535.75c25.806-26.506,51.49-53.296,75.73-81.25c0.637-0.734-0.409-1.806-1.077-1.077
						c-25.037,27.285-50.235,54.391-75.747,81.234C249.508,535.378,250.59,536.466,251.287,535.75L251.287,535.75z"/>
				</g>
				<g>
					<path style="fill:#3D6800;" d="M273.162,518.99c21.195-23.368,44.418-44.389,69.281-63.783
						c0.675-0.527-0.221-1.703-0.923-1.196c-25.517,18.426-48.754,40.211-69.352,63.985
						C271.58,518.674,272.549,519.665,273.162,518.99L273.162,518.99z"/>
				</g>
				<g>
					<path style="fill:#3D6800;" d="M247.844,527.181c1.459-17.113,3.072-34.216,5.012-51.281c0.97-8.531,2.021-17.052,3.158-25.562
						c1.13-8.459,2.812-16.969,3.284-25.497c0.047-0.846-1.272-1.016-1.473-0.199c-4.004,16.223-5.002,33.692-6.797,50.275
						c-1.882,17.386-3.384,34.807-4.402,52.265C246.579,527.97,247.778,527.954,247.844,527.181L247.844,527.181z"/>
				</g>
				<g>
					<path style="fill:#3D6800;" d="M239.494,437.289c1.823,26.484,3.591,53.122,6.832,79.474c0.116,0.945,1.576,1.002,1.523,0
						c-1.384-26.521-4.282-53.069-7.09-79.474C240.675,436.495,239.437,436.466,239.494,437.289L239.494,437.289z"/>
				</g>
				<g>
					<path style="fill:#729900;" d="M244.593,543.528c0.382-0.799,1.975-1.579,2.67-2.085c2.124-1.546,4.299-3.024,6.461-4.515
						c6.848-4.724,13.74-9.384,20.623-14.057c19.458-13.209,38.874-26.481,58.096-40.032c10.317-7.273,20.664-14.561,30.573-22.387
						c0.454-0.359-0.155-1.16-0.625-0.81c-35.763,26.646-72.73,51.418-109.323,76.885c-2.165,1.507-7.903,4.141-8.946,6.803
						C244.016,543.6,244.468,543.791,244.593,543.528L244.593,543.528z"/>
				</g>
				<g>
					<path style="fill:#729900;" d="M244.478,543.428c1.901-5.299,5.364-10.174,8.433-14.839c5.019-7.63,10.319-15.082,15.672-22.48
						c12.879-17.798,26.214-35.277,39.685-52.631c5.512-7.101,11.281-14.034,16.607-21.276c0.208-0.283-0.256-0.641-0.488-0.376
						c-12.274,14.02-23.295,29.365-34.534,44.214c-12.46,16.463-24.888,33.078-36.116,50.416c-3.439,5.31-7.398,10.876-9.473,16.913
						C244.216,543.505,244.43,543.561,244.478,543.428L244.478,543.428z"/>
				</g>
				<g>
					<path style="fill:#729900;" d="M244.585,543.457c2.064-10.897,3.684-22.166,6.905-32.796c2.76-9.109,5.926-18.102,9.062-27.086
						c8.442-24.188,17.585-48.103,26.36-72.167c0.167-0.459-0.546-0.638-0.723-0.199c-9.563,23.72-17.891,48.034-26.265,72.193
						c-3.116,8.99-6.26,17.989-9.002,27.103c-3.196,10.624-4.911,21.919-6.766,32.834
						C244.109,543.618,244.532,543.741,244.585,543.457L244.585,543.457z"/>
				</g>
				<g>
					<path style="fill:#3D6800;" d="M270.542,529.581c18.071-7.22,35.272-16.847,52.109-26.56
						c8.184-4.721,16.24-9.681,24.002-15.073c7.966-5.534,16.442-11.418,23.044-18.563c0.624-0.676-0.219-1.947-1.037-1.344
						c-7.866,5.802-15.061,12.446-23.041,18.139c-7.699,5.492-15.69,10.555-23.853,15.328c-16.79,9.818-33.965,18.943-51.758,26.809
						C269.301,528.63,269.813,529.872,270.542,529.581L270.542,529.581z"/>
				</g>
				<g>
					<path style="fill:#3D6800;" d="M251.043,525.562c6.225-16.484,12.975-32.784,20.468-48.733
						c7.264-15.462,16.042-30.128,23.455-45.482c0.367-0.76-0.659-1.368-1.133-0.662c-9.746,14.513-17.223,31.165-24.492,47.022
						c-7.138,15.572-13.578,31.427-19.224,47.6C249.911,525.895,250.827,526.132,251.043,525.562L251.043,525.562z"/>
				</g>
				<g>
					<path style="fill:#3D6800;" d="M252.511,523.622c7.754-19.21,16.929-37.851,27.527-55.654
						c4.989-8.38,10.299-16.563,15.888-24.556c5.385-7.701,11.455-15.331,15.123-24.048c0.299-0.71-0.817-1.103-1.199-0.506
						c-10.812,16.909-22.518,33.291-32.534,50.701c-9.931,17.263-18.45,35.263-25.64,53.832
						C251.472,523.915,252.306,524.131,252.511,523.622L252.511,523.622z"/>
				</g>
				<g>
					<path style="fill:#3D6800;" d="M225.819,447.376c4.218,16.203,6.873,32.775,9.218,49.337
						c2.333,16.472,3.544,33.507,7.387,49.71c0.173,0.73,1.407,0.594,1.335-0.181c-1.533-16.408-4.385-32.851-6.791-49.155
						c-2.485-16.837-5.279-33.657-9.794-50.086C226.935,446.13,225.59,446.498,225.819,447.376L225.819,447.376z"/>
				</g>
			</g>
		</g>
	</g>
</g>
</svg>
