<svg width="120" height="120" viewBox="0 0 120 120" fill="none" xmlns="http://www.w3.org/2000/svg">
<path d="M84.1837 68.745C79.9087 67.71 75.9375 68.8688 73.0312 71.2838C72.4237 71.79 71.4712 71.4713 71.3775 70.6875C70.1737 60.4463 61.4775 52.5 50.9137 52.5C43.1475 52.5 36.3937 56.7975 32.8725 63.135C29.745 61.9125 26.1787 61.5487 22.3762 62.7787C16.71 64.6087 12.3262 69.5175 11.4375 75.4087C9.94499 85.2675 17.5387 93.75 27.1162 93.75H81.06C89.0362 93.75 95.295 86.3887 93.4162 78.09C92.385 73.5412 88.7175 69.8438 84.1837 68.745Z" stroke="#3C78FA" stroke-width="2" stroke-miterlimit="10" stroke-linecap="round" stroke-linejoin="round"/>
<path d="M89.1225 71.25H96.0562C104.032 71.25 110.291 63.8888 108.412 55.59C107.381 51.0413 103.714 47.3437 99.1837 46.245C94.9087 45.21 90.9375 46.3687 88.0312 48.7837C87.4237 49.29 86.4712 48.9713 86.3775 48.1875C85.1737 37.9463 76.4775 30 65.9137 30C58.1475 30 51.3937 34.2975 47.8725 40.635C44.745 39.4125 41.1787 39.0488 37.3762 40.2788C31.71 42.1088 27.3262 47.0175 26.4375 52.9088C25.9387 56.1975 26.4712 59.325 27.735 62.0438" stroke="#3C78FA" stroke-width="2" stroke-miterlimit="10" stroke-linecap="round" stroke-linejoin="round"/>
</svg>
